<svg version="1.1" preserveAspectRatio="none" xmlns="http://www.w3.org/2000/svg" width="500" height="500" viewBox="0 0 500 500"><rect width="100%" height="100%" fill="#008858" fill-opacity="1"/><svg viewBox="80.1593 288.1623 385.7528 118.6" width="333" height="102.38111038986625" x="83.5px" y="198.8094px" xmlns="http://www.w3.org/2000/svg" xmlns:xlink="http://www.w3.org/1999/xlink" preserveAspectRatio="none"><defs></defs><style>.companyName {fill:#EBE7D9;fill-opacity:1;}.icon1 {fill:#FDEAA0;fill-opacity:1;}.icon3-str {stroke:#3E5C6D;stroke-opacity:1;}.shapeStroke-str {stroke:#EBE7D9;stroke-opacity:1;}</style><g opacity="1" transform="rotate(0 80.1593 368.1623)">
<svg width="385.7528" height="2" x="80.1593" y="368.1623" version="1.1" preserveAspectRatio="none" viewBox="0 0 385.7528 2">
  <rect x="0" y="0" width="385.7528" height="2" class="icon1 shapeStroke-str" style="stroke-width:0;" rx="4%" ry="4%" />
</svg>
</g><g opacity="1" transform="rotate(0 80.1593 380.1623)">
<svg width="145.2531" height="26.6" x="80.1593" y="380.1623" version="1.1" preserveAspectRatio="none" viewBox="0.88 -31.24 171.68 31.44">
  <g transform="matrix(1 0 0 1 0 0)" class="icon1"><path id="id-6izo4zJp8" d="M13.24-28.44Q10.60-28.44 9.26-26.68Q7.92-24.92 7.92-22L7.92-22L7.92-21.08L12.72-21.08Q13.36-21.08 13.74-20.70Q14.12-20.32 14.12-19.72L14.12-19.72Q14.12-19.16 13.74-18.78Q13.36-18.40 12.72-18.40L12.72-18.40L7.92-18.40L7.92-1.56Q7.92-0.84 7.50-0.42Q7.08 0 6.32 0L6.32 0Q5.68 0 5.26-0.42Q4.84-0.84 4.84-1.56L4.84-1.56L4.84-18.40L2.28-18.40Q1.64-18.40 1.26-18.78Q0.88-19.16 0.88-19.72L0.88-19.72Q0.88-20.32 1.26-20.70Q1.64-21.08 2.28-21.08L2.28-21.08L4.84-21.08L4.84-21.84Q4.84-26.12 7.04-28.68Q9.24-31.24 13.24-31.24L13.24-31.24Q13.92-31.24 14.36-30.84Q14.80-30.44 14.80-29.84L14.80-29.84Q14.80-29.24 14.36-28.84Q13.92-28.44 13.24-28.44L13.24-28.44Z M29-22.08Q32.16-22.08 34.68-20.64Q37.20-19.20 38.66-16.64Q40.12-14.08 40.12-10.92L40.12-10.92Q40.12-7.76 38.68-5.22Q37.24-2.68 34.70-1.24Q32.16 0.20 29 0.20L29 0.20Q25.84 0.20 23.30-1.24Q20.76-2.68 19.32-5.22Q17.88-7.76 17.88-10.92L17.88-10.92Q17.88-14.08 19.32-16.64Q20.76-19.20 23.30-20.64Q25.84-22.08 29-22.08L29-22.08ZM29-19.28Q26.72-19.28 24.86-18.20Q23-17.12 21.94-15.22Q20.88-13.32 20.88-10.92L20.88-10.92Q20.88-8.56 21.94-6.66Q23-4.76 24.86-3.68Q26.72-2.60 29-2.60L29-2.60Q31.32-2.60 33.16-3.68Q35-4.76 36.04-6.66Q37.08-8.56 37.08-10.92L37.08-10.92Q37.08-13.32 36.04-15.22Q35-17.12 33.16-18.20Q31.32-19.28 29-19.28L29-19.28Z M57.68-22.08Q60.84-22.08 63.36-20.64Q65.88-19.20 67.34-16.64Q68.80-14.08 68.80-10.92L68.80-10.92Q68.80-7.76 67.36-5.22Q65.92-2.68 63.38-1.24Q60.84 0.20 57.68 0.20L57.68 0.20Q54.52 0.20 51.98-1.24Q49.44-2.68 48.00-5.22Q46.56-7.76 46.56-10.92L46.56-10.92Q46.56-14.08 48.00-16.64Q49.44-19.20 51.98-20.64Q54.52-22.08 57.68-22.08L57.68-22.08ZM57.68-19.28Q55.40-19.28 53.54-18.20Q51.68-17.12 50.62-15.22Q49.56-13.32 49.56-10.92L49.56-10.92Q49.56-8.56 50.62-6.66Q51.68-4.76 53.54-3.68Q55.40-2.60 57.68-2.60L57.68-2.60Q60.00-2.60 61.84-3.68Q63.68-4.76 64.72-6.66Q65.76-8.56 65.76-10.92L65.76-10.92Q65.76-13.32 64.72-15.22Q63.68-17.12 61.84-18.20Q60.00-19.28 57.68-19.28L57.68-19.28Z M86.04-3.08Q86.68-3.08 87.08-2.64Q87.48-2.20 87.48-1.52L87.48-1.52Q87.48-0.88 87-0.44Q86.52 0 85.80 0L85.80 0L84.96 0Q82.84 0 81.16-1.02Q79.48-2.04 78.54-3.78Q77.60-5.52 77.60-7.72L77.60-7.72L77.60-18.40L75-18.40Q74.36-18.40 73.98-18.78Q73.60-19.16 73.60-19.72L73.60-19.72Q73.60-20.32 73.98-20.70Q74.36-21.08 75-21.08L75-21.08L77.60-21.08L77.60-27.28Q77.60-27.96 78.02-28.40Q78.44-28.84 79.12-28.84L79.12-28.84Q79.80-28.84 80.24-28.40Q80.68-27.96 80.68-27.28L80.68-27.28L80.68-21.08L85.20-21.08Q85.84-21.08 86.22-20.70Q86.60-20.32 86.60-19.72L86.60-19.72Q86.60-19.16 86.22-18.78Q85.84-18.40 85.20-18.40L85.20-18.40L80.68-18.40L80.68-7.72Q80.68-5.68 81.88-4.38Q83.08-3.08 84.96-3.08L84.96-3.08L86.04-3.08Z M94.12-20.72Q94.08-20.60 94.08-20.36L94.08-20.36L94.08-10.96Q94.08-7.84 95.54-5.28Q97.00-2.72 99.54-1.26Q102.08 0.20 105.20 0.20L105.20 0.20Q108.32 0.20 110.86-1.26Q113.40-2.72 114.86-5.28Q116.32-7.84 116.32-10.96L116.32-10.96Q116.32-14.08 114.90-16.62Q113.48-19.16 111.02-20.62Q108.56-22.08 105.52-22.08L105.52-22.08Q102.92-22.08 100.76-20.98Q98.60-19.88 97.20-17.96L97.20-17.96L97.20-29.68Q97.20-30.36 96.76-30.80Q96.32-31.24 95.64-31.24L95.64-31.24Q94.96-31.24 94.54-30.80Q94.12-30.36 94.12-29.68L94.12-29.68L94.12-20.72ZM105.20-2.60Q102.92-2.60 101.08-3.70Q99.24-4.80 98.18-6.70Q97.12-8.60 97.12-10.96L97.12-10.96Q97.12-11.64 97.16-11.96L97.16-11.96Q97.20-12.04 97.20-12.16L97.20-12.16Q97.60-15.28 99.82-17.28Q102.04-19.28 105.20-19.28L105.20-19.28Q107.48-19.28 109.34-18.20Q111.20-17.12 112.26-15.22Q113.32-13.32 113.32-10.96L113.32-10.96Q113.32-8.60 112.26-6.70Q111.20-4.80 109.34-3.70Q107.48-2.60 105.20-2.60L105.20-2.60Z M133.92-22.08Q137.04-22.08 139.58-20.62Q142.12-19.16 143.58-16.60Q145.04-14.04 145.04-10.92L145.04-10.92L145.04-1.52Q145.04-0.88 144.60-0.44Q144.16 0 143.48 0L143.48 0Q142.80 0 142.36-0.42Q141.92-0.84 141.92-1.52L141.92-1.52L141.92-3.92Q140.52-2 138.36-0.90Q136.20 0.20 133.60 0.20L133.60 0.20Q130.56 0.20 128.10-1.26Q125.64-2.72 124.22-5.26Q122.80-7.80 122.80-10.92L122.80-10.92Q122.80-14.04 124.26-16.60Q125.72-19.16 128.26-20.62Q130.80-22.08 133.92-22.08L133.92-22.08ZM133.92-2.60Q136.20-2.60 138.04-3.68Q139.88-4.76 140.94-6.66Q142-8.56 142-10.92L142-10.92Q142-13.28 140.94-15.18Q139.88-17.08 138.04-18.18Q136.20-19.28 133.92-19.28L133.92-19.28Q131.64-19.28 129.78-18.18Q127.92-17.08 126.86-15.18Q125.80-13.28 125.80-10.92L125.80-10.92Q125.80-8.56 126.86-6.66Q127.92-4.76 129.78-3.68Q131.64-2.60 133.92-2.60L133.92-2.60Z M151.84-29.72Q151.84-30.40 152.28-30.82Q152.72-31.24 153.36-31.24L153.36-31.24Q154.04-31.24 154.46-30.82Q154.88-30.40 154.88-29.72L154.88-29.72L154.88-6.92Q154.88-5.20 155.58-4.12Q156.28-3.04 157.36-3.04L157.36-3.04L158.36-3.04Q158.96-3.04 159.32-2.62Q159.68-2.20 159.68-1.52L159.68-1.52Q159.68-0.84 159.18-0.42Q158.68 0 157.88 0L157.88 0L157.36 0Q154.92 0 153.38-1.94Q151.84-3.88 151.84-6.92L151.84-6.92L151.84-29.72Z M164.72-29.72Q164.72-30.40 165.16-30.82Q165.60-31.24 166.24-31.24L166.24-31.24Q166.92-31.24 167.34-30.82Q167.76-30.40 167.76-29.72L167.76-29.72L167.76-6.92Q167.76-5.20 168.46-4.12Q169.16-3.04 170.24-3.04L170.24-3.04L171.24-3.04Q171.84-3.04 172.20-2.62Q172.56-2.20 172.56-1.52L172.56-1.52Q172.56-0.84 172.06-0.42Q171.56 0 170.76 0L170.76 0L170.24 0Q167.80 0 166.26-1.94Q164.72-3.88 164.72-6.92L164.72-6.92L164.72-29.72Z"/></g>
</svg>
</g><g opacity="1" transform="rotate(0 80.1593 288.1623)">
<svg width="385.7528" height="70" x="80.1593" y="288.1623" version="1.1" preserveAspectRatio="none" viewBox="4 -31.28 173.92000000000002 31.560000000000002">
  <g transform="matrix(1 0 0 1 0 0)" class="companyName"><path id="id-D6z1nYkh7" d="M33.20-31.24Q34.08-31.24 34.68-30.64Q35.28-30.04 35.28-29.16L35.28-29.16L35.28-2.08Q35.28-1.20 34.66-0.60Q34.04 0 33.20 0L33.20 0Q32.32 0 31.72-0.60Q31.12-1.20 31.12-2.08L31.12-2.08L31.12-21.96L21.44-2.24Q20.76-1.20 19.64-1.20L19.64-1.20Q18.32-1.20 17.72-2.44L17.72-2.44L8.16-21.60L8.16-2.08Q8.16-1.20 7.56-0.60Q6.96 0 6.08 0L6.08 0Q5.20 0 4.60-0.60Q4-1.20 4-2.08L4-2.08L4-29.16Q4-30.04 4.60-30.64Q5.20-31.24 6.08-31.24L6.08-31.24Q7.28-31.24 7.92-30.12L7.92-30.12L19.80-6.32L31.36-30.12Q32-31.24 33.20-31.24L33.20-31.24Z M52.80-22.04Q55.88-22.04 58.38-20.58Q60.88-19.12 62.34-16.58Q63.80-14.04 63.80-10.92L63.80-10.92L63.80-2Q63.80-1.12 63.22-0.54Q62.64 0.04 61.76 0.04L61.76 0.04Q60.88 0.04 60.30-0.54Q59.72-1.12 59.72-2L59.72-2L59.72-3.48Q58.32-1.76 56.32-0.80Q54.32 0.16 52 0.16L52 0.16Q49.12 0.16 46.78-1.28Q44.44-2.72 43.10-5.26Q41.76-7.80 41.76-10.92L41.76-10.92Q41.76-14.04 43.20-16.58Q44.64-19.12 47.18-20.58Q49.72-22.04 52.80-22.04L52.80-22.04ZM52.80-3.44Q54.80-3.44 56.42-4.42Q58.04-5.40 58.96-7.10Q59.88-8.80 59.88-10.92L59.88-10.92Q59.88-13.04 58.96-14.76Q58.04-16.48 56.42-17.46Q54.80-18.44 52.80-18.44L52.80-18.44Q50.80-18.44 49.18-17.46Q47.56-16.48 46.62-14.76Q45.68-13.04 45.68-10.92L45.68-10.92Q45.68-8.80 46.62-7.10Q47.56-5.40 49.18-4.42Q50.80-3.44 52.80-3.44L52.80-3.44Z M69.08-29.24Q69.08-30.12 69.64-30.68Q70.20-31.24 71.08-31.24L71.08-31.24Q71.96-31.24 72.52-30.68Q73.08-30.12 73.08-29.24L73.08-29.24L73.08-7.40Q73.08-5.92 73.64-4.96Q74.20-4 75.08-4L75.08-4L76.08-4Q76.88-4 77.38-3.44Q77.88-2.88 77.88-2L77.88-2Q77.88-1.12 77.12-0.56Q76.36 0 75.16 0L75.16 0L75.08 0Q73.36 0 71.98-0.94Q70.60-1.88 69.84-3.58Q69.08-5.28 69.08-7.40L69.08-7.40L69.08-29.24Z M90.84-31.28Q93.16-31.28 95.08-30.26Q97-29.24 98.10-27.48Q99.20-25.72 99.20-23.56L99.20-23.56Q99.20-21.40 97.84-19.82Q96.48-18.24 94.44-17.32L94.44-17.32Q97.48-16.28 98.96-14.14Q100.44-12 100.44-9.08L100.44-9.08Q100.44-6.52 99.12-4.44Q97.80-2.36 95.58-1.18Q93.36 0 90.76 0L90.76 0Q87.80 0 85.46-1.26Q83.12-2.52 81.80-4.70Q80.48-6.88 80.48-9.60L80.48-9.60Q80.48-10.48 81-11.08Q81.52-11.68 82.32-11.68L82.32-11.68Q83.12-11.68 83.64-11.08Q84.16-10.48 84.16-9.60L84.16-9.60Q84.16-7.96 85-6.58Q85.84-5.20 87.30-4.38Q88.76-3.56 90.52-3.56L90.52-3.56Q93.20-3.56 94.80-5.04Q96.40-6.52 96.40-9.12L96.40-9.12Q96.40-10.76 95.68-12.14Q94.96-13.52 93.70-14.30Q92.44-15.08 90.92-15.08L90.92-15.08Q90.04-15.08 89.46-15.68Q88.88-16.28 88.88-17.16L88.88-17.16Q88.88-18.04 89.46-18.62Q90.04-19.20 90.92-19.20L90.92-19.20Q92.04-19.20 93.10-19.78Q94.16-20.36 94.82-21.36Q95.48-22.36 95.48-23.56L95.48-23.56Q95.48-25.32 94.20-26.52Q92.92-27.72 90.92-27.72L90.92-27.72Q89.40-27.72 88.14-27.12Q86.88-26.52 86.14-25.52Q85.40-24.52 85.40-23.28L85.40-23.28Q85.40-22.36 84.88-21.74Q84.36-21.12 83.56-21.12L83.56-21.12Q82.76-21.12 82.24-21.70Q81.72-22.28 81.72-23.16L81.72-23.16Q81.72-25.44 82.92-27.30Q84.12-29.16 86.20-30.22Q88.28-31.28 90.84-31.28L90.84-31.28Z M115.76-22.04Q118.84-22.04 121.34-20.58Q123.84-19.12 125.30-16.58Q126.76-14.04 126.76-10.92L126.76-10.92L126.76-2Q126.76-1.12 126.18-0.54Q125.60 0.04 124.72 0.04L124.72 0.04Q123.84 0.04 123.26-0.54Q122.68-1.12 122.68-2L122.68-2L122.68-3.48Q121.28-1.76 119.28-0.80Q117.28 0.16 114.96 0.16L114.96 0.16Q112.08 0.16 109.74-1.28Q107.40-2.72 106.06-5.26Q104.72-7.80 104.72-10.92L104.72-10.92Q104.72-14.04 106.16-16.58Q107.60-19.12 110.14-20.58Q112.68-22.04 115.76-22.04L115.76-22.04ZM115.76-3.44Q117.76-3.44 119.38-4.42Q121.00-5.40 121.92-7.10Q122.84-8.80 122.84-10.92L122.84-10.92Q122.84-13.04 121.92-14.76Q121.00-16.48 119.38-17.46Q117.76-18.44 115.76-18.44L115.76-18.44Q113.76-18.44 112.14-17.46Q110.52-16.48 109.58-14.76Q108.64-13.04 108.64-10.92L108.64-10.92Q108.64-8.80 109.58-7.10Q110.52-5.40 112.14-4.42Q113.76-3.44 115.76-3.44L115.76-3.44Z M134.88-31.24Q133.96-31.24 133.40-30.68Q132.84-30.12 132.84-29.20L132.84-29.20L132.84-10.96Q132.84-7.84 134.30-5.30Q135.76-2.76 138.26-1.30Q140.76 0.16 143.84 0.16L143.84 0.16Q146.92 0.16 149.46-1.30Q152-2.76 153.44-5.30Q154.88-7.84 154.88-10.96L154.88-10.96Q154.88-14.08 153.54-16.62Q152.20-19.16 149.86-20.60Q147.52-22.04 144.64-22.04L144.64-22.04Q142.32-22.04 140.32-21.08Q138.32-20.12 136.92-18.40L136.92-18.40L136.92-29.20Q136.92-30.12 136.34-30.68Q135.76-31.24 134.88-31.24L134.88-31.24ZM143.84-3.44Q141.84-3.44 140.22-4.42Q138.60-5.40 137.68-7.12Q136.76-8.84 136.76-10.96L136.76-10.96Q136.76-13.08 137.68-14.78Q138.60-16.48 140.22-17.46Q141.84-18.44 143.84-18.44L143.84-18.44Q145.84-18.44 147.46-17.46Q149.08-16.48 150.02-14.78Q150.96-13.08 150.96-10.96L150.96-10.96Q150.96-8.84 150.02-7.12Q149.08-5.40 147.46-4.42Q145.84-3.44 143.84-3.44L143.84-3.44Z M177.48-2.88Q177.92-2.40 177.92-1.68L177.92-1.68Q177.92-0.80 177.20-0.20L177.20-0.20Q176.60 0.28 175.92 0.28L175.92 0.28Q175.04 0.28 174.48-0.44L174.48-0.44L166.88-9.84L164.88-8.08L164.88-1.96Q164.88-1.08 164.34-0.54Q163.80 0 162.92 0L162.92 0Q162.04 0 161.50-0.54Q160.96-1.08 160.96-1.96L160.96-1.96L160.96-29.28Q160.96-30.16 161.50-30.70Q162.04-31.24 162.92-31.24L162.92-31.24Q163.80-31.24 164.34-30.70Q164.88-30.16 164.88-29.28L164.88-29.28L164.88-13L174.60-21.68Q175.12-22.20 175.84-22.20L175.84-22.20Q176.68-22.20 177.20-21.56L177.20-21.56Q177.72-21.04 177.72-20.32L177.72-20.32Q177.72-19.48 177.08-18.96L177.08-18.96L169.72-12.40L177.48-2.88Z"/></g>
</svg>
</g></svg></svg>