<svg version="1.1" preserveAspectRatio="none" xmlns="http://www.w3.org/2000/svg" width="500" height="500" viewBox="0 0 500 500"><rect width="100%" height="100%" fill="#008858" fill-opacity="1"/><svg viewBox="91.6106 329.3283 372.4196 96" width="333" height="85.8386615527217" x="83.5px" y="207.0807px" xmlns="http://www.w3.org/2000/svg" xmlns:xlink="http://www.w3.org/1999/xlink" preserveAspectRatio="none"><defs></defs><style>.companyName {fill:#EBE7D9;fill-opacity:1;}.icon1 {fill:#FDEAA0;fill-opacity:1;}.icon3-str {stroke:#3E5C6D;stroke-opacity:1;}.shapeStroke-str {stroke:#EBE7D9;stroke-opacity:1;}</style><g opacity="1" transform="rotate(0 91.6106 423.3283)">
<svg width="372.4196" height="2" x="91.6106" y="423.3283" version="1.1" preserveAspectRatio="none" viewBox="0 0 372.4196 2">
  <rect x="0" y="0" width="372.4196" height="2" class="icon1 shapeStroke-str" style="stroke-width:0;" rx="4%" ry="4%" />
</svg>
</g><g opacity="1" transform="rotate(0 91.6106 329.3283)">
<svg width="372.4196" height="80" x="91.6106" y="329.3283" version="1.1" preserveAspectRatio="none" viewBox="4 -31.28 146.92000000000002 31.560000000000002">
  <g transform="matrix(1 0 0 1 0 0)" class="companyName"><path id="id-D6z1nYkh6" d="M33.20-31.24Q34.08-31.24 34.68-30.64Q35.28-30.04 35.28-29.16L35.28-29.16L35.28-2.08Q35.28-1.20 34.66-0.60Q34.04 0 33.20 0L33.20 0Q32.32 0 31.72-0.60Q31.12-1.20 31.12-2.08L31.12-2.08L31.12-21.96L21.44-2.24Q20.76-1.20 19.64-1.20L19.64-1.20Q18.32-1.20 17.72-2.44L17.72-2.44L8.16-21.60L8.16-2.08Q8.16-1.20 7.56-0.60Q6.96 0 6.08 0L6.08 0Q5.20 0 4.60-0.60Q4-1.20 4-2.08L4-2.08L4-29.16Q4-30.04 4.60-30.64Q5.20-31.24 6.08-31.24L6.08-31.24Q7.28-31.24 7.92-30.12L7.92-30.12L19.80-6.32L31.36-30.12Q32-31.24 33.20-31.24L33.20-31.24Z M42.08-29.24Q42.08-30.12 42.64-30.68Q43.20-31.24 44.08-31.24L44.08-31.24Q44.96-31.24 45.52-30.68Q46.08-30.12 46.08-29.24L46.08-29.24L46.08-7.40Q46.08-5.92 46.64-4.96Q47.20-4 48.08-4L48.08-4L49.08-4Q49.88-4 50.38-3.44Q50.88-2.88 50.88-2L50.88-2Q50.88-1.12 50.12-0.56Q49.36 0 48.16 0L48.16 0L48.08 0Q46.36 0 44.98-0.94Q43.60-1.88 42.84-3.58Q42.08-5.28 42.08-7.40L42.08-7.40L42.08-29.24Z M63.84-31.28Q66.16-31.28 68.08-30.26Q70-29.24 71.10-27.48Q72.20-25.72 72.20-23.56L72.20-23.56Q72.20-21.40 70.84-19.82Q69.48-18.24 67.44-17.32L67.44-17.32Q70.48-16.28 71.96-14.14Q73.44-12 73.44-9.08L73.44-9.08Q73.44-6.52 72.12-4.44Q70.80-2.36 68.58-1.18Q66.36 0 63.76 0L63.76 0Q60.80 0 58.46-1.26Q56.12-2.52 54.80-4.70Q53.48-6.88 53.48-9.60L53.48-9.60Q53.48-10.48 54-11.08Q54.52-11.68 55.32-11.68L55.32-11.68Q56.12-11.68 56.64-11.08Q57.16-10.48 57.16-9.60L57.16-9.60Q57.16-7.96 58-6.58Q58.84-5.20 60.30-4.38Q61.76-3.56 63.52-3.56L63.52-3.56Q66.20-3.56 67.80-5.04Q69.40-6.52 69.40-9.12L69.40-9.12Q69.40-10.76 68.68-12.14Q67.96-13.52 66.70-14.30Q65.44-15.08 63.92-15.08L63.92-15.08Q63.04-15.08 62.46-15.68Q61.88-16.28 61.88-17.16L61.88-17.16Q61.88-18.04 62.46-18.62Q63.04-19.20 63.92-19.20L63.92-19.20Q65.04-19.20 66.10-19.78Q67.16-20.36 67.82-21.36Q68.48-22.36 68.48-23.56L68.48-23.56Q68.48-25.32 67.20-26.52Q65.92-27.72 63.92-27.72L63.92-27.72Q62.40-27.72 61.14-27.12Q59.88-26.52 59.14-25.52Q58.40-24.52 58.40-23.28L58.40-23.28Q58.40-22.36 57.88-21.74Q57.36-21.12 56.56-21.12L56.56-21.12Q55.76-21.12 55.24-21.70Q54.72-22.28 54.72-23.16L54.72-23.16Q54.72-25.44 55.92-27.30Q57.12-29.16 59.20-30.22Q61.28-31.28 63.84-31.28L63.84-31.28Z M88.76-22.04Q91.84-22.04 94.34-20.58Q96.84-19.12 98.30-16.58Q99.76-14.04 99.76-10.92L99.76-10.92L99.76-2Q99.76-1.12 99.18-0.54Q98.60 0.04 97.72 0.04L97.72 0.04Q96.84 0.04 96.26-0.54Q95.68-1.12 95.68-2L95.68-2L95.68-3.48Q94.28-1.76 92.28-0.80Q90.28 0.16 87.96 0.16L87.96 0.16Q85.08 0.16 82.74-1.28Q80.40-2.72 79.06-5.26Q77.72-7.80 77.72-10.92L77.72-10.92Q77.72-14.04 79.16-16.58Q80.60-19.12 83.14-20.58Q85.68-22.04 88.76-22.04L88.76-22.04ZM88.76-3.44Q90.76-3.44 92.38-4.42Q94.00-5.40 94.92-7.10Q95.84-8.80 95.84-10.92L95.84-10.92Q95.84-13.04 94.92-14.76Q94.00-16.48 92.38-17.46Q90.76-18.44 88.76-18.44L88.76-18.44Q86.76-18.44 85.14-17.46Q83.52-16.48 82.58-14.76Q81.64-13.04 81.64-10.92L81.64-10.92Q81.64-8.80 82.58-7.10Q83.52-5.40 85.14-4.42Q86.76-3.44 88.76-3.44L88.76-3.44Z M107.88-31.24Q106.96-31.24 106.40-30.68Q105.84-30.12 105.84-29.20L105.84-29.20L105.84-10.96Q105.84-7.84 107.30-5.30Q108.76-2.76 111.26-1.30Q113.76 0.16 116.84 0.16L116.84 0.16Q119.92 0.16 122.46-1.30Q125.00-2.76 126.44-5.30Q127.88-7.84 127.88-10.96L127.88-10.96Q127.88-14.08 126.54-16.62Q125.20-19.16 122.86-20.60Q120.52-22.04 117.64-22.04L117.64-22.04Q115.32-22.04 113.32-21.08Q111.32-20.12 109.92-18.40L109.92-18.40L109.92-29.20Q109.92-30.12 109.34-30.68Q108.76-31.24 107.88-31.24L107.88-31.24ZM116.84-3.44Q114.84-3.44 113.22-4.42Q111.60-5.40 110.68-7.12Q109.76-8.84 109.76-10.96L109.76-10.96Q109.76-13.08 110.68-14.78Q111.60-16.48 113.22-17.46Q114.84-18.44 116.84-18.44L116.84-18.44Q118.84-18.44 120.46-17.46Q122.08-16.48 123.02-14.78Q123.96-13.08 123.96-10.96L123.96-10.96Q123.96-8.84 123.02-7.12Q122.08-5.40 120.46-4.42Q118.84-3.44 116.84-3.44L116.84-3.44Z M150.48-2.88Q150.92-2.40 150.92-1.68L150.92-1.68Q150.92-0.80 150.20-0.20L150.20-0.20Q149.60 0.28 148.92 0.28L148.92 0.28Q148.04 0.28 147.48-0.44L147.48-0.44L139.88-9.84L137.88-8.08L137.88-1.96Q137.88-1.08 137.34-0.54Q136.80 0 135.92 0L135.92 0Q135.04 0 134.50-0.54Q133.96-1.08 133.96-1.96L133.96-1.96L133.96-29.28Q133.96-30.16 134.50-30.70Q135.04-31.24 135.92-31.24L135.92-31.24Q136.80-31.24 137.34-30.70Q137.88-30.16 137.88-29.28L137.88-29.28L137.88-13L147.60-21.68Q148.12-22.20 148.84-22.20L148.84-22.20Q149.68-22.20 150.20-21.56L150.20-21.56Q150.72-21.04 150.72-20.32L150.72-20.32Q150.72-19.48 150.08-18.96L150.08-18.96L142.72-12.40L150.48-2.88Z"/></g>
</svg>
</g></svg></svg>