<svg version="1.1" preserveAspectRatio="none" xmlns="http://www.w3.org/2000/svg" width="500" height="500" viewBox="0 0 500 500"><rect width="100%" height="100%" fill="#F2F2F2" fill-opacity="1"/><svg viewBox="126.2667 388.0856 391.3304 179.0467" width="333" height="152.3585980031196" x="83.5px" y="173.8207px" xmlns="http://www.w3.org/2000/svg" xmlns:xlink="http://www.w3.org/1999/xlink" preserveAspectRatio="none"><defs></defs><style>.companyName {fill:#1E1E1E;fill-opacity:1;}.icon1 {fill:#F56E56;fill-opacity:1;}.icon2 {fill:#1E1E1E;fill-opacity:1;}.icon3 {fill:#D0D0D0;fill-opacity:1;}.icon3-str {stroke:#D0D0D0;stroke-opacity:1;}</style><g opacity="1" transform="rotate(0 126.2667 497.1323)">
<svg width="391.3304" height="70" x="126.2667" y="497.1323" version="1.1" preserveAspectRatio="none" viewBox="3.28 -26.76 149.6 26.76">
  <g transform="matrix(1 0 0 1 0 0)" class="companyName"><path id="id-D6z1nYkh6" d="M9.08-18.68L9.08 0L3.28 0L3.28-24.88L10.20-24.88L17.92-9.32L25.88-24.88L32.80-24.88L32.80 0L27 0L27-18.72L20.16-5.40L15.76-5.40L9.08-18.68Z M45.56-26.76L45.56 0L39.36 0L39.36-26.76L45.56-26.76Z M57.80-21.28L57.80-21.28L57.80-17L51.32-17L51.32-21.72Q51.32-24.88 54.48-24.88L54.48-24.88L70.16-24.88Q73.32-24.88 73.32-21.72L73.32-21.72L73.32-15.24Q73.32-12.80 71.12-12.68L71.12-12.68Q73.32-12.48 73.32-10.16L73.32-10.16L73.32-3.16Q73.32 0 70.16 0L70.16 0L54.48 0Q51.32 0 51.32-3.16L51.32-3.16L51.32-7.84L57.80-7.84L57.80-3.60Q57.80-2.80 58.04-2.58Q58.28-2.36 59.04-2.36L59.04-2.36L65.64-2.36Q66.44-2.36 66.66-2.58Q66.88-2.80 66.88-3.60L66.88-3.60L66.88-10.16Q66.88-10.96 66.66-11.18Q66.44-11.40 65.64-11.40L65.64-11.40L59.92-11.40L59.92-13.80L65.64-13.80Q66.44-13.80 66.66-14.02Q66.88-14.24 66.88-15.04L66.88-15.04L66.88-21.28Q66.88-22.08 66.66-22.30Q66.44-22.52 65.64-22.52L65.64-22.52L59.04-22.52Q58.28-22.52 58.04-22.30Q57.80-22.08 57.80-21.28Z M86.08-2.36L86.08-2.36L91.48-2.36Q92.92-2.36 92.92-3.64L92.92-3.64L92.92-15.76Q92.92-17.04 91.48-17.04L91.48-17.04L86.08-17.04Q85.28-17.04 85.06-16.80Q84.84-16.56 84.84-15.80L84.84-15.80L84.84-3.60Q84.84-2.80 85.06-2.58Q85.28-2.36 86.08-2.36ZM92.92-18.08L92.92-19.40L99.08-19.40L99.08 0L92.92 0L92.92-1.32Q92.44 0 90.64 0L90.64 0L81.84 0Q78.68 0 78.68-3.16L78.68-3.16L78.68-16.24Q78.68-19.40 81.84-19.40L81.84-19.40L90.64-19.40Q92.44-19.40 92.92-18.08L92.92-18.08Z M119.24-3.60L119.24-3.60L119.24-15.80Q119.24-16.56 119-16.80Q118.76-17.04 118-17.04L118-17.04L112.64-17.04Q111.24-17.04 111.24-15.76L111.24-15.76L111.24-14.52L111.20-14.52L111.20-4.64L111.24-4.64L111.24-3.64Q111.24-2.36 112.64-2.36L112.64-2.36L118-2.36Q118.76-2.36 119-2.58Q119.24-2.80 119.24-3.60ZM113.48-19.40L113.48-19.40L122.28-19.40Q125.44-19.40 125.44-16.24L125.44-16.24L125.44-3.16Q125.44 0 122.28 0L122.28 0L113.48 0Q111.68 0 111.20-1.32L111.20-1.32L111.20 0L105.00 0L105.00-26.76L111.20-26.76L111.20-18.08Q111.68-19.40 113.48-19.40Z M137.24 0L131.04 0L131.04-26.76L137.24-26.76L137.24 0ZM146.12-19.40L152.88-19.40L144.44-9.80L152.88 0L146.08 0L137.92-9.80L146.12-19.40Z"/></g>
</svg>
</g><g opacity="1" transform="rotate(0 282.7989 388.0856)">
<svg width="78.266" height="69.0467" x="282.7989" y="388.0856" version="1.1" preserveAspectRatio="none" viewBox="1.715999960899353 2.0429999828338623 5.568999767303467 4.913000106811523">
  <g transform="matrix(1 0 0 1 0 0)" class="icon1"><path d="M5.812,6.956H5.811H3.189c-0.09,0-0.164-0.074-0.164-0.163c0-0.453,0.367-0.819,0.819-0.819h0.164V5.251  C3.646,5.148,3.327,4.937,3.091,4.64C3.017,4.655,2.939,4.663,2.862,4.663c-0.632,0-1.146-0.514-1.146-1.147V2.862  c0-0.091,0.073-0.164,0.164-0.164h0.819V2.207c0-0.091,0.073-0.164,0.164-0.164h3.276c0.09,0,0.163,0.073,0.163,0.164v0.491h0.818  c0.092,0,0.165,0.073,0.165,0.164v0.654c0,0.633-0.515,1.147-1.146,1.147c-0.078,0-0.154-0.008-0.229-0.023  C5.672,4.937,5.354,5.148,4.991,5.251v0.723h0.164c0.438,0,0.798,0.348,0.817,0.782C5.975,6.768,5.977,6.78,5.977,6.793  C5.977,6.882,5.904,6.956,5.812,6.956z M3.381,6.628h2.236C5.55,6.438,5.369,6.301,5.155,6.301H4.827  c-0.09,0-0.163-0.073-0.163-0.164V5.122c0-0.078,0.055-0.146,0.131-0.161C5.166,4.886,5.49,4.672,5.709,4.36  C5.75,4.301,5.824,4.276,5.893,4.298c0.077,0.024,0.16,0.037,0.245,0.037c0.451,0,0.819-0.367,0.819-0.819V3.025H6.138  c-0.091,0-0.165-0.074-0.165-0.164V2.37H3.026v0.492c0,0.09-0.074,0.164-0.164,0.164H2.043v0.491c0,0.452,0.367,0.819,0.819,0.819  c0.084,0,0.167-0.013,0.246-0.037C3.175,4.276,3.25,4.301,3.291,4.36c0.219,0.312,0.543,0.525,0.914,0.601  c0.077,0.016,0.131,0.083,0.131,0.161v1.015c0,0.091-0.073,0.164-0.164,0.164H3.845C3.631,6.301,3.449,6.438,3.381,6.628z   M2.838,3.998c-0.233,0-0.424-0.192-0.424-0.429V3.332h0.424v0.237c0,0.149,0.027,0.292,0.077,0.422  C2.89,3.997,2.864,3.998,2.838,3.998 M6.163,3.998c-0.027,0-0.053-0.001-0.077-0.007c0.05-0.131,0.077-0.273,0.077-0.422V3.332  h0.423v0.237C6.586,3.806,6.396,3.998,6.163,3.998 M5.756,2.862V2.712H3.263v0.149c0,0.02-0.012,0.033-0.018,0.051h2.511V2.862z"></path></g>
</svg>
</g></svg></svg>