<svg version="1.1" preserveAspectRatio="none" xmlns="http://www.w3.org/2000/svg" width="500" height="500" viewBox="0 0 500 500"><rect width="100%" height="100%" fill="#192537" fill-opacity="1"/><svg viewBox="172.8381 296.8471 381.3852 101.8664" width="333" height="88.94291440779558" x="83.5px" y="205.5285px" xmlns="http://www.w3.org/2000/svg" xmlns:xlink="http://www.w3.org/1999/xlink" preserveAspectRatio="none"><defs></defs><style>.companyName {fill:#E9E9E9;fill-opacity:1;}.icon1 {fill:#B09E80;fill-opacity:0.98;}.icon2 {fill:#E9E9E9;fill-opacity:1;}.icon3 {fill:#716551;fill-opacity:1;}.icon3-str {stroke:#716551;stroke-opacity:1;}.shapeStroke-str {stroke:#E9E9E9;stroke-opacity:1;}</style><g opacity="1" transform="rotate(0 348.5307 296.8471)">
<svg width="30" height="23.7328" x="348.5307" y="296.8471" version="1.1" preserveAspectRatio="none" viewBox="25.9679012298584 30.976905822753903 48.06419372558594 38.023284912109375">
  <g transform="matrix(1 0 0 1 0 0)" class="icon1"><title>Artboard 265</title><path d="M32,69H68a2,2,0,0,0,2-1.67l4-24a2,2,0,0,0-3-2.07L58.93,48.17l-7.1-16a2,2,0,0,0-3.66,0l-7.1,16L29,41.26a2,2,0,0,0-3,2.07l4,24A2,2,0,0,0,32,69Zm9-16.26a2,2,0,0,0,1.61.16,2,2,0,0,0,1.21-1.09L50,37.92l6.17,13.89a2,2,0,0,0,1.21,1.09A2,2,0,0,0,59,52.74l10.34-5.91L66.31,65H33.69l-3-18.17Z"></path></g>
</svg>
</g><g opacity="1" transform="rotate(0 172.8381 312.7135)">
<svg width="160.6926" height="2" x="172.8381" y="312.7135" version="1.1" preserveAspectRatio="none" viewBox="0 0 160.6926 2">
  <rect x="0" y="0" width="160.6926" height="2" class="icon1 shapeStroke-str" style="stroke-width:0;" rx="0px" ry="0px" />
</svg>
</g><g opacity="1" transform="rotate(0 393.5307 312.7135)">
<svg width="160.6926" height="2" x="393.5307" y="312.7135" version="1.1" preserveAspectRatio="none" viewBox="0 0 160.6926 2">
  <rect x="0" y="0" width="160.6926" height="2" class="icon1 shapeStroke-str" style="stroke-width:0;" rx="0px" ry="0px" />
</svg>
</g><g opacity="1" transform="rotate(0 172.8381 338.7135)">
<svg width="381.3852" height="60" x="172.8381" y="338.7135" version="1.1" preserveAspectRatio="none" viewBox="0.6 -28.56 191.20000000000002 30.08">
  <g transform="matrix(1 0 0 1 0 0)" class="companyName"><path id="id-D6z1nYkh7" d="M36-0.40L36-0.40L36.64-0.40L36.64 0L27.96 0L27.96-0.36L28.56-0.36Q29.24-0.36 29.72-0.90Q30.20-1.44 30.12-2.08L30.12-2.08L28.32-22.20L19.92-3.52Q18.80-1.08 18.56 0.56L18.56 0.56L18.16 0.56L7.92-21.64L6.20-2.08Q6.12-1.44 6.60-0.90Q7.08-0.36 7.72-0.36L7.72-0.36L8.36-0.36L8.36 0L0.60 0L0.60-0.40L1.24-0.40Q2.36-0.40 3.18-1.08Q4-1.76 4.16-2.92L4.16-2.92L7.16-28.56L7.56-28.56L18.72-4.44L29.64-28.56L30-28.56L33.08-2.92Q33.28-1.32 34.68-0.68L34.68-0.68Q35.28-0.40 36-0.40Z M65.64-0.40L65.64-0.40L65.96-0.40L65.96 0L57.76 0L57.76-0.40L58.08-0.40Q58.84-0.40 59.24-0.92Q59.64-1.44 59.64-1.90Q59.64-2.36 59.48-2.80L59.48-2.80L57.28-8.12L47.16-8.12L44.96-2.92Q44.76-2.40 44.76-1.94Q44.76-1.48 45.16-0.94Q45.56-0.40 46.36-0.40L46.36-0.40L46.68-0.40L46.68 0L39.04 0L39.04-0.40L39.36-0.40Q40.20-0.40 41.06-0.98Q41.92-1.56 42.48-2.72L42.48-2.72Q51.24-21.44 51.60-22.32L51.60-22.32Q52.28-24 52.32-24.56L52.32-24.56L52.68-24.56L62.56-2.72Q63.72-0.40 65.64-0.40ZM52.32-20.28L47.68-9.32L56.80-9.32L52.32-20.28Z M69.96-0.40L70.52-0.40Q71.48-0.40 72.14-1.02Q72.80-1.64 72.84-2.52L72.84-2.52L72.84-21.44Q72.80-22.32 72.10-22.96Q71.40-23.60 70.44-23.60L70.44-23.60L69.96-23.60L69.96-24L78.24-24L78.24-23.60L77.76-23.60Q76.80-23.60 76.10-22.96Q75.40-22.32 75.40-21.44L75.40-21.44L75.40-1.24L81.64-1.24Q83.48-1.24 84.76-1.88Q86.04-2.52 86.70-3.40Q87.36-4.28 88-5.72L88-5.72L88.40-5.72L86.20 0L69.96 0L69.96-0.40Z M94.32-21.92L93.64-25.64Q96.16-28.48 100.52-28.48L100.52-28.48Q103.64-28.48 105.70-26.84Q107.76-25.20 107.76-22.64Q107.76-20.08 106.04-18.08Q104.32-16.08 102.28-15.88L102.28-15.88Q104.84-15.44 106.68-13.54Q108.52-11.64 108.52-8.98Q108.52-6.32 107.32-4.28L107.32-4.28Q104.80 0 99.32 1.20L99.32 1.20Q97.80 1.52 96.38 1.52Q94.96 1.52 93.60 1.28L93.60 1.28L93.68 0.88Q93.88 0.88 94.08 0.88L94.08 0.88Q97 0.88 99.62-0.28Q102.24-1.44 103.88-3.70Q105.52-5.96 105.52-9Q105.52-12.04 103.28-13.70Q101.04-15.36 97.32-15.36L97.32-15.36L97.40-15.76Q97.40-15.76 97.44-15.76L97.44-15.76Q100.24-15.76 102.48-17.52L102.48-17.52Q103.56-18.36 104.14-19.62Q104.72-20.88 104.72-22.24L104.72-22.24Q104.72-24.44 103.44-25.86Q102.16-27.28 99.74-27.28Q97.32-27.28 96.02-25.86Q94.72-24.44 94.72-22.32L94.72-22.32Q94.72-22.12 94.72-21.92L94.72-21.92L94.32-21.92Z M139.72-0.40L139.72-0.40L140.04-0.40L140.04 0L131.84 0L131.84-0.40L132.16-0.40Q132.92-0.40 133.32-0.92Q133.72-1.44 133.72-1.90Q133.72-2.36 133.56-2.80L133.56-2.80L131.36-8.12L121.24-8.12L119.04-2.92Q118.84-2.40 118.84-1.94Q118.84-1.48 119.24-0.94Q119.64-0.40 120.44-0.40L120.44-0.40L120.76-0.40L120.76 0L113.12 0L113.12-0.40L113.44-0.40Q114.28-0.40 115.14-0.98Q116.00-1.56 116.56-2.72L116.56-2.72Q125.32-21.44 125.68-22.32L125.68-22.32Q126.36-24 126.40-24.56L126.40-24.56L126.76-24.56L136.64-2.72Q137.80-0.40 139.72-0.40ZM126.40-20.28L121.76-9.32L130.88-9.32L126.40-20.28Z M159.92-20.68L159.92-20.68Q160.52-19.52 160.52-17.88Q160.52-16.24 159.20-14.86Q157.88-13.48 156.12-13.04L156.12-13.04Q159.04-12.72 160.94-10.92Q162.84-9.12 162.84-6.98Q162.84-4.84 162.02-3.48Q161.20-2.12 159.84-1.40L159.84-1.40Q157.24 0 153.96 0L153.96 0L144.04 0L144.04-0.40L144.52-0.40Q145.52-0.40 146.20-1.02Q146.88-1.64 146.92-2.56L146.92-2.56L146.92-21.44Q146.88-22.76 145.72-23.32L145.72-23.32Q145.20-23.60 144.52-23.60L144.52-23.60L144.04-23.60L144.04-24L152.20-24Q158.16-24 159.92-20.68ZM160-6.72L160-6.72Q160-12.68 150.68-12.68L150.68-12.68L150.68-13.08Q157.72-13.08 157.72-18L157.72-18Q157.72-22.80 152.16-22.80L152.16-22.80L149.44-22.80L149.44-1.20L153.92-1.20Q156.64-1.20 158.32-2.58Q160-3.96 160-6.72Z M191.80-0.40L191.80 0L190.32 0Q186.40 0 184.44-2.28L184.44-2.28L175.64-11.92L184.24-22.04Q184.68-22.60 184.38-23.10Q184.08-23.60 183.36-23.60L183.36-23.60L183-23.60L183-24L191.16-24L191.16-23.60L191-23.60Q188.56-23.60 187.12-22.16L187.12-22.16L178.40-12.84L188.32-2.04Q189.04-1.16 189.80-0.80Q190.56-0.44 191.80-0.40L191.80-0.40ZM176.60-0.40L176.60-0.40L177.04-0.40L177.04 0L168.84 0L168.84-0.40L169.32-0.40Q170.28-0.40 170.96-1.04Q171.64-1.68 171.68-2.56L171.68-2.56L171.68-21.44Q171.64-22.32 170.96-22.96Q170.28-23.60 169.32-23.60L169.32-23.60L168.84-23.60L168.84-24L177.04-24L177.04-23.60L176.56-23.60Q175.28-23.60 174.56-22.56L174.56-22.56Q174.24-22.08 174.24-21.48L174.24-21.48L174.24-2.52Q174.24-1.64 174.94-1.02Q175.64-0.40 176.60-0.40Z"/></g>
</svg>
</g></svg></svg>