<svg version="1.1" preserveAspectRatio="none" xmlns="http://www.w3.org/2000/svg" width="500" height="500" viewBox="0 0 500 500"><rect width="100%" height="100%" fill="#8EC0E7" fill-opacity="1"/><svg viewBox="126.9468 377.7966 396.7785 253.5253" width="333" height="212.77343631270344" x="83.5px" y="143.6133px" xmlns="http://www.w3.org/2000/svg" xmlns:xlink="http://www.w3.org/1999/xlink" preserveAspectRatio="none"><defs></defs><style>.companyName {fill:#F3F3F3;fill-opacity:1;}.icon1 {fill:#019CDD;fill-opacity:1;}.icon2 {fill:#FF89AE;fill-opacity:1;}.icon3 {fill:#84E795;fill-opacity:1;}.icon3-str {stroke:#84E795;stroke-opacity:1;}</style><g opacity="1" transform="rotate(0 126.9468 541.3219)">
<svg width="396.7785" height="90" x="126.9468" y="541.3219" version="1.1" preserveAspectRatio="none" viewBox="1.6 -31 138.96 31.52">
  <g transform="matrix(1 0 0 1 0 0)" class="companyName"><path id="id-D6z1nYkh6" d="M32.76-28.20L32.76-28.20Q33.08-27.60 33.14-27.12Q33.20-26.64 33.20-25.72L33.20-25.72L33.20-3.52Q33.20-0.76 31.68-0.28L31.68-0.28Q30.92-0.04 29.76-0.04Q28.60-0.04 27.92-0.24Q27.24-0.44 26.88-0.72Q26.52-1 26.32-1.52L26.32-1.52Q26.12-2.20 26.12-3.60L26.12-3.60L26.12-17Q25.12-15.76 23.20-13.06Q21.28-10.36 20.76-9.68Q20.24-9 20.04-8.74Q19.84-8.48 19.06-8.02Q18.28-7.56 17.38-7.56Q16.48-7.56 15.74-7.98Q15-8.40 14.68-8.80L14.68-8.80L14.36-9.24Q13.56-10.24 11.20-13.50Q8.84-16.76 8.64-17L8.64-17L8.64-3.52Q8.64-2.60 8.58-2.14Q8.52-1.68 8.20-1.12L8.20-1.12Q7.60-0.04 5.08-0.04L5.08-0.04Q2.64-0.04 2.04-1.12L2.04-1.12Q1.72-1.68 1.66-2.16Q1.60-2.64 1.60-3.60L1.60-3.60L1.60-25.80Q1.60-26.72 1.66-27.18Q1.72-27.64 2.04-28.24L2.04-28.24Q2.64-29.28 5.16-29.28L5.16-29.28Q6.24-29.28 7.02-29.02Q7.80-28.76 8.04-28.48L8.04-28.48L8.28-28.24L17.36-16.32Q24.16-25.32 26.44-28.20L26.44-28.20Q27.12-29.28 29.66-29.28Q32.20-29.28 32.76-28.20Z M36.40-8.44L36.40-27.48Q36.40-28.40 36.46-28.86Q36.52-29.32 36.80-29.92L36.80-29.92Q37.36-31 39.92-31L39.92-31Q42.36-31 42.96-29.92L42.96-29.92Q43.28-29.32 43.34-28.84Q43.40-28.36 43.40-27.44L43.40-27.44L43.40-8.92Q43.40-7.48 43.64-7.10Q43.88-6.72 44.70-6.72Q45.52-6.72 45.80-6.66Q46.08-6.60 46.48-6.32L46.48-6.32Q47.28-5.80 47.28-3.48L47.28-3.48Q47.28-0.96 46.48-0.40L46.48-0.40Q45.44 0.32 41.52-0.16L41.52-0.16Q38.44-0.56 37.52-2.20L37.52-2.20Q36.40-4.16 36.40-8.44L36.40-8.44Z M59.96-29.76Q64.88-29.76 67.72-26.96Q70.56-24.16 70.56-20.66Q70.56-17.16 67.44-15.60L67.44-15.60L67.44-15.32Q67.84-15.12 68.62-14.46Q69.40-13.80 69.88-13.16L69.88-13.16Q71.20-11.48 71.20-9.32L71.20-9.32Q71.20-5.04 68-2.26Q64.80 0.52 59.96 0.52L59.96 0.52Q55.16 0.52 51.96-2.28L51.96-2.28Q50.76-3.36 49.84-5.12L49.84-5.12Q49.52-5.76 49.40-6.16L49.40-6.16L49.32-6.56Q48.88-7.88 48.88-8.72L48.88-8.72Q48.88-11.04 52.80-11.04L52.80-11.04Q54.40-11.04 54.92-10.64L54.92-10.64Q55.60-10.12 56.12-8.56L56.12-8.56Q56.52-7.28 58.32-6.64L58.32-6.64Q59.08-6.40 60-6.40L60-6.40Q62.12-6.40 63.12-7.26Q64.12-8.12 64.12-9.20Q64.12-10.28 63.14-11.10Q62.16-11.92 60.82-11.92Q59.48-11.92 59-12Q58.52-12.08 57.96-12.40L57.96-12.40Q56.88-12.92 56.88-15.48L56.88-15.48Q56.88-18.28 58.36-18.80L58.36-18.80Q59.04-19 60.44-19L60.44-19Q63.48-19 63.48-20.56L63.48-20.56Q63.48-21.40 62.68-22.16Q61.88-22.92 60.46-22.92Q59.04-22.92 58.20-22.44Q57.36-21.96 57.16-21.48L57.16-21.48L56.92-21Q56-19 54.28-19L54.28-19Q53.28-19 52.08-19.72L52.08-19.72Q50.08-20.88 50.08-22.40L50.08-22.40Q50.08-23.04 51-25.12L51-25.12Q51.16-25.48 51.88-26.38Q52.60-27.28 53.54-27.96Q54.48-28.64 56.18-29.20Q57.88-29.76 59.96-29.76L59.96-29.76Z M87.48-18.84L87.48-18.84Q87.72-21.08 90.64-21.08L90.64-21.08Q92.20-21.08 92.96-20.84Q93.72-20.60 94.02-20Q94.32-19.40 94.38-18.94Q94.44-18.48 94.44-17.56L94.44-17.56L94.44-3.56Q94.44-2.64 94.38-2.18Q94.32-1.72 94.04-1.12L94.04-1.12Q93.48-0.08 91.30-0.08Q89.12-0.08 88.38-0.62Q87.64-1.16 87.52-2.20L87.52-2.20Q86.04-0.08 82.58-0.08Q79.12-0.08 76.16-3.24Q73.20-6.40 73.20-10.58Q73.20-14.76 76.18-17.90Q79.16-21.04 82.72-21.04L82.72-21.04Q84.08-21.04 85.20-20.56Q86.32-20.08 86.76-19.66Q87.20-19.24 87.48-18.84ZM80.20-10.52Q80.20-9.20 81.24-8.14Q82.28-7.08 83.76-7.08Q85.24-7.08 86.22-8.16Q87.20-9.24 87.20-10.54Q87.20-11.84 86.26-12.96Q85.32-14.08 83.74-14.08Q82.16-14.08 81.18-12.96Q80.20-11.84 80.20-10.52Z M109.20-21.04L109.20-21.04Q112.76-21.04 115.74-17.88Q118.72-14.72 118.72-10.54Q118.72-6.36 115.76-3.22Q112.80-0.08 109.40-0.08Q106-0.08 104.56-2L104.56-2Q104.24-0.04 101.12-0.04L101.12-0.04Q98.60-0.04 98.04-1.12L98.04-1.12Q97.76-1.72 97.70-2.18Q97.64-2.64 97.64-3.56L97.64-3.56L97.64-27.44Q97.64-28.36 97.70-28.82Q97.76-29.28 98.04-29.84L98.04-29.84Q98.60-30.92 101.16-30.92L101.16-30.92Q103.68-30.92 104.20-29.84L104.20-29.84Q104.52-29.24 104.58-28.78Q104.64-28.32 104.64-27.40L104.64-27.40L104.64-19.08Q106.24-21.04 109.20-21.04ZM105.70-8.12Q106.68-7.04 108.16-7.04Q109.64-7.04 110.68-8.12Q111.72-9.20 111.72-10.52Q111.72-11.84 110.76-12.94Q109.80-14.04 108.20-14.04Q106.60-14.04 105.66-12.92Q104.72-11.80 104.72-10.50Q104.72-9.20 105.70-8.12Z M137.68-13.92L133.72-10.56L139.04-6.16Q140.04-5.32 140.30-4.88Q140.56-4.44 140.56-4.04L140.56-4.04Q140.56-3.08 139.32-1.44L139.32-1.44Q137.96 0.24 136.92 0.24L136.92 0.24Q136.04 0.24 134.48-0.92L134.48-0.92L134.08-1.20Q133.16-1.96 131.24-3.86Q129.32-5.76 128.32-6.56L128.32-6.56L128.32-3.48Q128.32-2.56 128.26-2.10Q128.20-1.64 127.88-1.04L127.88-1.04Q127.36 0 124.80 0L124.80 0Q122.28 0 121.72-1.08L121.72-1.08Q121.44-1.68 121.38-2.14Q121.32-2.60 121.32-3.52L121.32-3.52L121.32-27.48Q121.32-28.40 121.38-28.86Q121.44-29.32 121.72-29.92L121.72-29.92Q122.28-31 124.84-31L124.84-31Q126.76-31 127.56-30.32L127.56-30.32Q128.24-29.76 128.28-28.56L128.28-28.56Q128.32-28.20 128.32-27.44L128.32-27.44L128.32-14.76Q129.04-15.36 130.50-16.80Q131.96-18.24 132.68-18.84L132.68-18.84L133.16-19.16Q134.56-20.24 135.56-20.24Q136.56-20.24 137.86-18.62Q139.16-17 139.16-16.08Q139.16-15.16 137.68-13.92L137.68-13.92Z"/></g>
</svg>
</g><g opacity="1" transform="rotate(0 226.1414 377.7966)">
<svg width="198.3893" height="123.5253" x="226.1414" y="377.7966" version="1.1" preserveAspectRatio="none" viewBox="11 31 106 66">
  <g transform="matrix(1 0 0 1 0 0)" class="icon1"><path style="" d="M 14 31 C 12.3 31 11 32.3 11 34 L 11 46 C 11 47.4 11.899219 48.600391 13.199219 48.900391 L 47.5 57.900391 C 45.6 68.300391 48.699609 79.500781 56.599609 87.300781 C 63.099609 93.800781 71.5 97 80 97 C 88.5 97 96.900781 93.800391 103.30078 87.400391 C 109.00078 81.700391 112.10078 74.499609 112.80078 67.099609 L 114 67.099609 C 115.7 67.099609 117 65.799609 117 64.099609 C 117 62.399609 115.7 61 114 61 L 112.80078 61 C 112.10078 53.6 109.00078 46.299219 103.30078 40.699219 C 97.100781 34.399219 88.8 31 80 31 L 14 31 z M 17 37 L 80 37 L 80 49 C 83.8 49 87.699609 50.500391 90.599609 53.400391 C 96.499609 59.300391 96.499609 68.699609 90.599609 74.599609 C 87.699609 77.499609 83.8 79 80 79 L 80 91 C 73.1 91 66.200391 88.399609 60.900391 83.099609 C 51.900391 74.099609 50.400391 59.799219 57.400391 49.199219 C 58.300391 47.799219 57.9 46 56.5 45 C 55.1 44.1 53.300781 44.500391 52.300781 45.900391 C 51.000781 47.900391 49.899609 49.999219 49.099609 52.199219 L 17 43.699219 L 17 37 z "></path></g>
</svg>
</g></svg></svg>