<svg version="1.1" preserveAspectRatio="none" xmlns="http://www.w3.org/2000/svg" width="500" height="500" viewBox="0 0 500 500"><rect width="100%" height="100%" fill="#F5F5F5" fill-opacity="1"/><svg viewBox="143.9857 331.9258 377.2979 321.9265" width="333" height="284.12966120405116" x="83.5px" y="107.9352px" xmlns="http://www.w3.org/2000/svg" xmlns:xlink="http://www.w3.org/1999/xlink" preserveAspectRatio="none"><defs></defs><style>.companyName {fill:#F7BFB2;fill-opacity:1;}.icon1 {fill:#FDC8BC;fill-opacity:1;}.icon2 {fill:#D2BB7A;fill-opacity:1;}.icon3 {fill:#8F8F8F;fill-opacity:1;}.icon3-str {stroke:#8F8F8F;stroke-opacity:1;}</style><g opacity="1" transform="rotate(0 143.9857 563.8523)">
<svg width="377.2979" height="90" x="143.9857" y="563.8523" version="1.1" preserveAspectRatio="none" viewBox="4 -31.2 132.64 31.64">
  <g transform="matrix(1 0 0 1 0 0)" class="companyName"><path id="id-D6z1nYkh6" d="M33.32-30.16L33.40-30.16L33.40 0L28.76 0L28.76-16.84L18.56-2.36L18.48-2.36L8.52-16.16L8.52 0L4 0L4-30.16L4.04-30.16L18.56-9.60L33.32-30.16Z M40.48-31.20L44.96-31.20L44.96 0L40.48 0L40.48-31.20Z M60.20-16.72Q63-16.40 64.78-14.48Q66.56-12.56 66.56-8.80L66.56-8.80Q66.56-6.04 65.28-3.98Q64-1.92 61.86-0.80Q59.72 0.32 57.16 0.32L57.16 0.32Q55.20 0.32 53.18-0.48Q51.16-1.28 49.96-2.60L49.96-2.60L52.32-6.44Q53.08-5.52 54.38-4.84Q55.68-4.16 57.04-4.16L57.04-4.16Q59-4.16 60.38-5.50Q61.76-6.84 61.76-9.08L61.76-9.08Q61.76-11.12 60.54-12.34Q59.32-13.56 57.24-13.56L57.24-13.56Q56.20-13.56 55.52-13.44Q54.84-13.32 54-13.08L54-13.08L53.88-13.20L59.12-21.92L51.76-21.92L51.76-26.40L65.84-26.40L60.20-16.72Z M85.72-16.92L89.84-16.92L89.84 0L85.36 0L85.36-2.44Q84.44-1.36 82.88-0.46Q81.32 0.44 79.24 0.44L79.24 0.44Q76.80 0.44 74.88-0.58Q72.96-1.60 71.84-3.60Q70.72-5.60 70.72-8.44L70.72-8.44Q70.72-11.20 71.88-13.30Q73.04-15.40 74.98-16.54Q76.92-17.68 79.24-17.68L79.24-17.68Q83.36-17.68 85.40-14.64L85.40-14.64L85.72-16.92ZM80.48-3.24Q82.32-3.24 83.58-4.18Q84.84-5.12 85.36-6.84L85.36-6.84L85.36-10.52Q84.88-12.08 83.50-13.04Q82.12-14 80.32-14L80.32-14Q78.20-14 76.72-12.50Q75.24-11 75.24-8.68L75.24-8.68Q75.24-7.16 75.96-5.92Q76.68-4.68 77.88-3.96Q79.08-3.24 80.48-3.24L80.48-3.24Z M107.32-17.68Q109.56-17.68 111.44-16.60Q113.32-15.52 114.42-13.50Q115.52-11.48 115.52-8.76L115.52-8.76Q115.52-5.96 114.32-3.88Q113.12-1.80 111.10-0.68Q109.08 0.44 106.72 0.44L106.72 0.44Q104.72 0.44 103.16-0.28Q101.60-1 100.52-2.24L100.52-2.24L100.52 0L96.04 0L96.04-31.20L100.52-31.20L100.52-15.12Q101.60-16.28 103.38-16.98Q105.16-17.68 107.32-17.68L107.32-17.68ZM105.76-3.36Q107.96-3.36 109.46-4.92Q110.96-6.48 110.96-8.80L110.96-8.80Q110.96-10.28 110.26-11.52Q109.56-12.76 108.38-13.46Q107.20-14.16 105.76-14.16L105.76-14.16Q103.88-14.16 102.46-13.20Q101.04-12.24 100.52-10.64L100.52-10.64L100.52-6.88Q101.12-5.24 102.48-4.30Q103.84-3.36 105.76-3.36L105.76-3.36Z M131.44 0L126.68-7.68L124.72-6.16L124.72 0L120.24 0L120.24-31.20L124.72-31.20L124.72-10.80L133.20-17.32L135.92-14.92L129.76-10.12L136.64 0L131.44 0Z"/></g>
</svg>
</g><g opacity="1" transform="rotate(0 238.3102 331.9258)">
<svg width="188.649" height="201.9265" x="238.3102" y="331.9258" version="1.1" preserveAspectRatio="none" viewBox="20.693002700805664 18.630826950073242 58.61381530761719 62.739166259765625">
  <g transform="matrix(1 0 0 1 0 0)" class="icon1"><g><path d="M26.405,40.006l6.355,1.383c0.143,0.031,0.286,0.046,0.427,0.046c0.92,0,1.749-0.639,1.952-1.575   c0.235-1.079-0.449-2.145-1.529-2.379l-6.355-1.383c-1.074-0.233-2.144,0.449-2.379,1.529   C24.641,38.706,25.325,39.771,26.405,40.006z"></path><path d="M46.349,30.171c0.123,1.015,0.985,1.76,1.983,1.76c0.08,0,0.161-0.004,0.243-0.015c1.097-0.132,1.878-1.129,1.745-2.226   l-0.781-6.457c-0.133-1.097-1.13-1.885-2.226-1.745c-1.097,0.132-1.878,1.129-1.745,2.226L46.349,30.171z"></path><path d="M37.7,33.287c0.394,0.418,0.924,0.629,1.457,0.629c0.492,0,0.984-0.18,1.371-0.544c0.804-0.757,0.842-2.023,0.085-2.827   L29.983,19.26c-0.757-0.804-2.023-0.843-2.827-0.085c-0.804,0.757-0.842,2.023-0.085,2.827L37.7,33.287z"></path><path d="M79.035,42.697l-4.963-8.527c-0.27-0.463-0.714-0.799-1.233-0.932l-5.454-1.393l-5.663-1.517   c-0.476-0.126-0.984-0.074-1.426,0.15l-12.905,6.574l-0.037-0.007l-0.006,0.029l-15.767,8.031c-1.139,0.5-2.27,1.132-3.364,1.882   c-0.657,0.451-1.289,0.953-1.878,1.491c-3.588,3.273-5.646,7.935-5.646,12.788c0,9.692,7.025,17.492,17.152,18.976l9.984,1.111   c0.073,0.009,0.147,0.013,0.221,0.013c0.11,0,0.215-0.012,0.325-0.014c0.079,0.01,0.158,0.018,0.236,0.018   c0.136,0,0.268-0.017,0.397-0.043c10.31-0.409,17.435-7.333,17.435-17.146c0-2.234-0.417-4.394-1.241-6.438l13.469-12.577   C79.354,44.527,79.505,43.503,79.035,42.697z M61.428,34.391l4.944,1.324l1.486,0.379l-6.937,3.608l-7.166-1.404L61.428,34.391z    M52.718,43.971l-7.143-1.505l2.401-1.223l7.253,1.421L52.718,43.971z M24.693,61.266c0-3.732,1.583-7.316,4.342-9.833   c0.455-0.415,0.942-0.801,1.445-1.147c0.901-0.617,1.829-1.135,2.755-1.538c0.037-0.016,0.073-0.034,0.109-0.052l6.552-3.337   l7.228,1.522l-4.218,2.194c-1.098,0.438-2.15,0.999-3.135,1.671c-0.612,0.423-1.197,0.888-1.735,1.38   c-3.324,3.03-5.23,7.348-5.23,11.845c0,4.832,1.797,9.065,4.877,12.178C30.005,74.729,24.693,68.705,24.693,61.266z M61.424,55.798   c-0.65,0.608-0.821,1.573-0.418,2.368c0.954,1.879,1.438,3.902,1.438,6.014c0,7.7-5.521,12.92-13.795,13.164   c-7.092-1.15-11.843-6.49-11.843-13.373c0-3.374,1.431-6.614,3.928-8.892c0.406-0.371,0.847-0.721,1.303-1.035   c0.758-0.519,1.575-0.951,2.429-1.284c0.067-0.026,0.132-0.056,0.195-0.089L71.95,38.475l2.825,4.854L61.424,55.798z"></path></g></g>
</svg>
</g></svg></svg>