<svg version="1.1" preserveAspectRatio="none" xmlns="http://www.w3.org/2000/svg" width="500" height="500" viewBox="0 0 500 500"><rect width="100%" height="100%" fill="#EFFFE0" fill-opacity="1"/><svg viewBox="218.5486 268.9673 361.9519 285.7562" width="333" height="262.89906089731807" x="83.5px" y="118.5505px" xmlns="http://www.w3.org/2000/svg" xmlns:xlink="http://www.w3.org/1999/xlink" preserveAspectRatio="none"><defs></defs><style>.companyName {fill:#313131;fill-opacity:1;}.icon1 {fill:#313131;fill-opacity:1;}.icon2 {fill:#C2EF7E;fill-opacity:1;}.icon3 {fill:#6B7D3B;fill-opacity:1;}.icon3-str {stroke:#6B7D3B;stroke-opacity:1;}</style><g opacity="1" transform="rotate(0 218.5486 474.7235)">
<svg width="361.9519" height="80" x="218.5486" y="474.7235" version="1.1" preserveAspectRatio="none" viewBox="1.8 -33.2 152.2 33.64">
  <g transform="matrix(1 0 0 1 0 0)" class="companyName"><path id="id-D6z1nYkh6" d="M21.84-7.16L22-7.16L32.40-30.80L41.36-30.80L41.36-29.28Q40.08-29.24 39.30-28.96Q38.52-28.68 38.10-28.02Q37.68-27.36 37.54-26.20Q37.40-25.04 37.40-23.24L37.40-23.24L37.40-7.56Q37.40-5.56 37.56-4.40Q37.72-3.24 38.18-2.60Q38.64-1.96 39.50-1.76Q40.36-1.56 41.76-1.52L41.76-1.52L41.76 0L28.80 0L28.80-1.52Q30.20-1.56 31.06-1.78Q31.92-2 32.40-2.60Q32.88-3.20 33.04-4.30Q33.20-5.40 33.20-7.28L33.20-7.28L33.20-25.84L32.80-25.84L21.12 0.40L20.24 0.40L8.76-25.84L8.60-25.84L8.60-7.56Q8.60-5.56 8.76-4.40Q8.92-3.24 9.38-2.60Q9.84-1.96 10.70-1.76Q11.56-1.56 12.96-1.52L12.96-1.52L12.96 0L1.80 0L1.80-1.52Q3.20-1.56 4.06-1.78Q4.92-2 5.40-2.60Q5.88-3.20 6.04-4.30Q6.20-5.40 6.20-7.28L6.20-7.28L6.20-23.52Q6.20-25.20 6.06-26.30Q5.92-27.40 5.50-28.04Q5.08-28.68 4.28-28.94Q3.48-29.20 2.20-29.28L2.20-29.28L2.20-30.80L11.76-30.80L21.84-7.16Z M51.96-33.20L51.96-6.24Q51.96-4.72 52.08-3.80Q52.20-2.88 52.58-2.36Q52.96-1.84 53.66-1.64Q54.36-1.44 55.52-1.40L55.52-1.40L55.52 0L44.48 0L44.48-1.40Q45.68-1.44 46.40-1.66Q47.12-1.88 47.54-2.36Q47.96-2.84 48.10-3.70Q48.24-4.56 48.24-5.96L48.24-5.96L48.24-23.20Q48.24-25.36 48.18-26.82Q48.12-28.28 48-28.80L48-28.80Q47.80-29.72 47.06-30.04Q46.32-30.36 44.40-30.36L44.40-30.36L44.40-31.72L51.96-33.20Z M73.76-8.56L73.76-8.56Q73.76-11.88 72.42-13.70Q71.08-15.52 68.64-15.52L68.64-15.52Q68.04-15.20 67.30-15Q66.56-14.80 65.96-14.80L65.96-14.80Q65.16-14.80 64.64-15.18Q64.12-15.56 64.12-16.16L64.12-16.16Q64.12-16.72 64.60-17Q65.08-17.28 65.88-17.28L65.88-17.28Q66.40-17.28 67.06-17.16Q67.72-17.04 68.32-16.84L68.32-16.84Q70.48-16.84 71.78-18.76Q73.08-20.68 73.08-23.88L73.08-23.88Q73.08-29.48 68.36-29.48L68.36-29.48Q66.24-29.48 65.02-28.52Q63.80-27.56 63.80-25.88L63.80-25.88Q63.80-24.52 64.60-23.68Q65.40-22.84 66.68-22.84L66.68-22.84Q66.48-22.16 65.70-21.74Q64.92-21.32 63.88-21.32L63.88-21.32Q63-21.32 62.26-21.64Q61.52-21.96 60.98-22.54Q60.44-23.12 60.12-23.88Q59.80-24.64 59.80-25.56L59.80-25.56Q59.80-26.84 60.42-27.88Q61.04-28.92 62.16-29.66Q63.28-30.40 64.86-30.80Q66.44-31.20 68.36-31.20L68.36-31.20Q70.52-31.20 72.28-30.68Q74.04-30.16 75.28-29.24Q76.52-28.32 77.20-27Q77.88-25.68 77.88-24.08L77.88-24.08Q77.88-22.72 77.40-21.52Q76.92-20.32 76.12-19.34Q75.32-18.36 74.22-17.68Q73.12-17 71.88-16.68L71.88-16.68L71.88-16.44Q73.36-16.04 74.64-15.28Q75.92-14.52 76.84-13.48Q77.76-12.44 78.28-11.12Q78.80-9.80 78.80-8.28L78.80-8.28Q78.80-6.40 78-4.82Q77.20-3.24 75.80-2.08Q74.40-0.92 72.46-0.26Q70.52 0.40 68.20 0.40L68.20 0.40Q66.12 0.40 64.38-0.14Q62.64-0.68 61.36-1.62Q60.08-2.56 59.36-3.86Q58.64-5.16 58.64-6.68L58.64-6.68Q58.64-7.76 59-8.68Q59.36-9.60 59.98-10.30Q60.60-11 61.44-11.38Q62.28-11.76 63.24-11.76L63.24-11.76Q64.36-11.76 65.24-11.26Q66.12-10.76 66.32-10L66.32-10Q64.80-10 63.84-8.90Q62.88-7.80 62.88-6.08L62.88-6.08Q62.88-4.04 64.32-2.76Q65.76-1.48 68.12-1.48L68.12-1.48Q70.88-1.48 72.32-3.30Q73.76-5.12 73.76-8.56Z M95.20-8.68L95.20-11.84Q92.92-10.96 91.34-10.12Q89.76-9.28 88.80-8.44Q87.84-7.60 87.42-6.76Q87.00-5.92 87.00-5.04L87.00-5.04Q87.00-3.72 87.88-2.88Q88.76-2.04 90.20-2.04L90.20-2.04Q91.24-2.04 92.14-2.56Q93.04-3.08 93.72-3.98Q94.40-4.88 94.80-6.10Q95.20-7.32 95.20-8.68L95.20-8.68ZM89.44-11.04L95.20-13.56L95.20-15.20Q95.20-20.08 91.04-20.08L91.04-20.08Q90.36-20.08 89.88-19.96Q89.40-19.84 89.08-19.56Q88.76-19.28 88.50-18.76Q88.24-18.24 88.00-17.48L88.00-17.48Q87.56-16.32 87.14-15.94Q86.72-15.56 85.92-15.56L85.92-15.56Q83.92-15.56 83.92-17.56L83.92-17.56Q83.92-19.48 85.96-20.54Q88.00-21.60 91.76-21.60L91.76-21.60Q95.76-21.60 97.44-20.18Q99.12-18.76 99.12-15.36L99.12-15.36L99.12-6.40Q99.12-1.84 100.92-1.84L100.92-1.84Q101.48-1.84 102.00-1.98Q102.52-2.12 102.88-2.72L102.88-2.72L103.44-1.76Q102.96-0.84 101.68-0.22Q100.40 0.40 99.00 0.40L99.00 0.40Q97.24 0.40 96.38-0.72Q95.52-1.84 95.52-3.88L95.52-3.88L95.32-3.88Q94.28-1.92 92.44-0.78Q90.60 0.36 88.36 0.36L88.36 0.36Q85.84 0.36 84.40-0.92Q82.96-2.20 82.96-4.36L82.96-4.36Q82.96-5.32 83.30-6.20Q83.64-7.08 84.40-7.88Q85.16-8.68 86.40-9.46Q87.64-10.24 89.44-11.04L89.44-11.04Z M110.96-11.92L110.96-8.36Q110.96-6.84 111.40-5.58Q111.84-4.32 112.62-3.42Q113.40-2.52 114.50-2Q115.60-1.48 116.88-1.48L116.88-1.48Q118.28-1.48 119.42-2.12Q120.56-2.76 121.38-3.94Q122.20-5.12 122.66-6.78Q123.12-8.44 123.12-10.48L123.12-10.48Q123.12-12.52 122.64-14.22Q122.16-15.92 121.32-17.14Q120.48-18.36 119.30-19.04Q118.12-19.72 116.72-19.72L116.72-19.72Q115.08-19.72 113.80-18.94Q112.52-18.16 111.84-16.76L111.84-16.76Q110.96-15 110.96-11.92L110.96-11.92ZM110.88-33.20L110.88-18.36L111.04-18.36Q112.32-20.04 113.86-20.82Q115.40-21.60 117.44-21.60L117.44-21.60Q119.60-21.60 121.46-20.76Q123.32-19.92 124.70-18.44Q126.08-16.96 126.86-14.94Q127.64-12.92 127.64-10.60L127.64-10.60Q127.64-8.24 126.84-6.22Q126.04-4.20 124.66-2.72Q123.28-1.24 121.40-0.40Q119.52 0.44 117.32 0.44L117.32 0.44Q115.04 0.44 113.06-0.40Q111.08-1.24 109.80-2.68L109.80-2.68L107.92 0L107.04 0L107.04-24.16Q107.04-28.20 106.52-29.32L106.52-29.32Q106.40-29.60 106.24-29.78Q106.08-29.96 105.76-30.10Q105.44-30.24 104.88-30.36Q104.32-30.48 103.36-30.60L103.36-30.60L103.36-31.60L110.88-33.20Z M143.48 0L143.48-1.40Q144.80-1.40 145.30-1.52Q145.80-1.64 145.80-1.84L145.80-1.84Q145.76-2.16 145.16-3Q144.56-3.84 143.60-5L143.60-5L139.36-10.12L137.88-8.72L137.88-6.36Q137.88-4.80 138.02-3.86Q138.16-2.92 138.54-2.38Q138.92-1.84 139.66-1.64Q140.40-1.44 141.60-1.40L141.60-1.40L141.60 0L130.24 0L130.24-1.40Q131.44-1.44 132.18-1.64Q132.92-1.84 133.34-2.36Q133.76-2.88 133.92-3.76Q134.08-4.64 134.08-6.08L134.08-6.08L134.08-22.84Q134.08-25.88 134.02-27.44Q133.96-29 133.60-29.56L133.60-29.56Q133.24-30.12 132.40-30.22Q131.56-30.32 130.16-30.32L130.16-30.32L130.16-31.68L137.88-33.20L137.88-11.24L141.60-14.88Q143.40-16.68 144.28-17.54Q145.16-18.40 145.16-18.84L145.16-18.84Q145.16-19.28 144.32-19.54Q143.48-19.80 141.92-19.80L141.92-19.80L141.92-21.20L152.32-21.20L152.32-19.80Q151.56-19.80 151-19.72Q150.44-19.64 149.94-19.40Q149.44-19.16 148.88-18.74Q148.32-18.32 147.60-17.68L147.60-17.68L141.84-12.56L149.76-3.60Q150.32-2.92 150.78-2.50Q151.24-2.08 151.70-1.84Q152.16-1.60 152.70-1.50Q153.24-1.40 154-1.40L154-1.40L154 0L143.48 0Z"/></g>
</svg>
</g><g opacity="1" transform="rotate(0 327.1342 268.9673)">
<svg width="144.7807" height="165.7562" x="327.1342" y="268.9673" version="1.1" preserveAspectRatio="none" viewBox="6579.26416015625 3186.284423828125 46838.125 53623.9140625">
  <g transform="matrix(1 0 0 1 0 0)" class="icon1"><defs></defs><g><path class="fil0" d="M38476 35698c-28,-7 -55,-17 -81,-31 -17,-9 -32,-20 -46,-31 -199,36 -390,24 -567,-22 -131,-34 -253,-87 -363,-154 20,111 47,222 85,335 54,161 62,165 155,288 295,388 535,805 715,1240l2988 2214c7,5 14,10 21,15l1685 1345 1385 -2069 1673 -2506 -724 -386c-126,356 -279,706 -489,1023 -7,11 -15,21 -23,31 -313,398 -665,573 -1001,597 -234,16 -455,-42 -649,-151 -186,-105 -346,-257 -468,-435 -25,-36 -48,-73 -69,-112l-234 401c-22,37 -49,68 -81,92 -344,278 -709,349 -1045,292 -243,-41 -465,-150 -649,-295 -181,-143 -329,-324 -423,-511 -33,-65 -60,-132 -80,-199 -258,65 -498,57 -713,-1 -199,-54 -375,-152 -525,-276 -146,-121 -265,-268 -353,-422 -50,-87 -90,-178 -121,-270zm-1716 -1099c-40,-153 -47,-307 -17,-449 13,-365 23,-794 -33,-1219 -53,-400 -165,-803 -395,-1152 -157,-105 -322,-154 -469,-154 -110,0 -207,29 -275,83 -78,496 -118,991 -157,1478 -66,829 -131,1635 -387,2455 -55,547 -141,1064 -226,1571 -222,1321 -433,2581 13,3884 33,79 34,170 -5,253l-428 929 4794 2277 412 -1051c170,-434 378,-477 736,-551 31,-6 65,-19 147,-38l1780 -1050c120,-71 258,-125 337,-239 53,-77 113,-178 128,-204l-1729 -1380 -2308 -1711c55,285 87,574 93,863 22,1062 -293,2132 -988,3076 -103,140 -300,171 -441,68 -140,-103 -171,-300 -68,-441 610,-828 887,-1765 868,-2691 -11,-528 -118,-1054 -314,-1556 -4,-9 -7,-17 -10,-26 -93,-235 -206,-465 -338,-686 -683,-817 -699,-1502 -716,-2254 -1,-28 -1,-57 -2,-85zm-24351 -1444c166,-50 342,44 393,210 50,166 -44,342 -210,393l-3581 1093c-166,50 -342,-44 -393,-210 -50,-166 44,-342 210,-393l3581 -1093zm1561 2690c142,-100 338,-67 438,75 100,142 67,338 -75,438l-7258 5140c-142,100 -338,67 -438,-75 -100,-142 -67,-338 75,-438l7258 -5140zm2150 2323c97,-145 292,-183 437,-86 145,97 183,292 86,437l-3408 5098c-97,145 -292,183 -437,86 -145,-97 -183,-292 -86,-437l3408 -5098zm2792 1895c26,-173 187,-291 359,-265 173,26 291,187 265,359l-909 5911c-26,172 -187,291 -359,265 -173,-26 -291,-187 -265,-359l909 -5911zm3945 440c-20,-173 105,-330 278,-349 173,-20 330,105 349,278l581 4948c20,173 -105,330 -278,349 -173,20 -330,-105 -349,-278l-581 -4948zm14776 -21362c-168,47 -342,-51 -389,-219 -47,-168 51,-342 219,-389l4795 -1355c168,-47 342,51 389,219 47,168 -51,342 -219,389l-4795 1355zm-1761 -3544c-149,90 -342,42 -432,-106 -90,-149 -42,-342 106,-432l4949 -3000c149,-90 342,-42 432,106 90,149 42,342 -106,432l-4949 3000zm-2620 -2045c-97,145 -293,183 -437,86 -145,-97 -183,-292 -86,-437l3408 -5098c97,-145 292,-183 437,-86 145,97 183,293 86,437l-3408 5098zm-2878 -1310c-38,170 -207,276 -377,238 -170,-38 -276,-207 -238,-377l1974 -8671c38,-170 207,-276 377,-238 170,38 276,207 238,377l-1974 8671zm-3070 -613c16,173 -111,327 -284,343 -173,16 -327,-111 -343,-284l-359 -3727c-16,-173 111,-327 284,-343 173,-16 327,111 343,284l359 3727zm11128 23321l1629 -2941c-50,-246 -132,-423 -234,-544 -80,-96 -174,-157 -275,-190 -104,-35 -217,-40 -329,-23 -165,24 -325,94 -454,188l-1411 2856c-14,97 27,225 107,348 53,82 122,159 205,222 81,62 173,110 271,136 145,38 312,29 492,-51zm2171 -2620l-1543 2785c2,34 -1,69 -10,103 -32,116 5,280 95,437 53,93 123,179 208,250 81,67 177,121 285,150 175,47 386,31 627,-87l1567 -3142c-48,-271 -142,-451 -258,-561 -71,-67 -151,-110 -234,-133 -88,-24 -183,-28 -276,-17 -180,22 -340,97 -430,186 -9,10 -19,20 -29,29zm-7 -750c5,2 9,3 14,5 118,-48 245,-82 376,-98 168,-21 346,-12 521,36 179,50 351,141 501,284 143,136 264,317 351,552 16,5 33,11 49,19 20,10 38,21 55,35 96,-29 189,-48 278,-57 300,-31 556,41 768,171 205,126 363,302 477,488 28,45 53,92 76,138l4 2c14,6 28,13 40,21 94,-40 191,-68 289,-83 179,-27 361,-12 535,46 171,57 332,155 470,295 216,218 380,535 444,951 8,56 2,111 -17,160 -61,188 -112,363 -164,542 -22,77 -45,155 -68,234l880 470 1056 -1582c5,-8 11,-16 17,-23l596 -733 -1 -1c471,-575 819,-400 1359,-129 51,26 105,53 220,106 11,5 21,11 31,17l3279 1730 0 0c447,208 451,525 284,883 -67,144 -166,286 -264,427 -43,61 -85,122 -91,131l-7297 10917c-17,25 -51,79 -86,133 -93,144 -185,289 -294,407 -266,290 -560,408 -924,75l-3 -3 -2864 -2378c-4,-3 -8,-7 -12,-10l0 1c-70,-65 -128,-114 -182,-161 -457,-395 -751,-650 -400,-1305l1 -1 -1 0 1024 -1535c66,-99 57,-87 124,-187l-1433 962c-31,7 -102,22 -167,35 -145,30 -229,47 -275,163l-429 1096 145 74c145,74 208,245 150,394l0 0 -607 1572 317 154c141,68 208,227 166,372l-2199 9076c-41,169 -211,273 -380,232 -169,-41 -273,-211 -232,-380l2142 -8843 -7185 -3485 -6546 12647c-80,155 -270,216 -425,136 -155,-80 -216,-270 -136,-425l6723 -12989c79,-153 267,-215 421,-138l323 145 698 -1456c75,-157 263,-223 420,-148l8 4 0 0 299 155 335 -728c-455,-1416 -236,-2721 -6,-4089 86,-513 174,-1036 225,-1559 3,-28 9,-54 18,-79l3 -10c-173,40 -363,50 -551,29 -266,-31 -537,-125 -762,-291 -694,398 -1881,892 -3213,1056 -1017,125 -2124,59 -3175,-383 -10,-4 -19,-9 -28,-14l-40 -22c-146,139 -302,274 -468,407 -222,177 -466,350 -737,521 -23,14 -47,26 -74,35 -451,145 -929,246 -1418,286 -453,37 -917,22 -1379,-58l0 -1c-902,-143 -1823,-419 -2713,-805 -901,-391 -1770,-892 -2555,-1478 -34,-25 -48,-36 -62,-45 -146,-106 -236,-171 -351,-370 -147,-253 -212,-514 -224,-763 -14,-305 52,-590 140,-819 36,-94 72,-169 112,-238 37,-66 78,-128 126,-200l843 -1261 -454 -249 -69 104c-16,23 -34,48 -53,71 -23,28 -44,52 -60,70 -140,151 -362,199 -612,150 -181,-35 -390,-123 -589,-256 -193,-129 -349,-282 -451,-431 -138,-201 -187,-414 -123,-596 24,-68 100,-178 139,-234l13 -18 9323 -13947c11,-17 -2,2 11,-17 37,-57 109,-169 164,-218 144,-129 359,-165 598,-115 176,37 378,123 571,252 199,133 359,293 461,446 141,213 183,436 96,623 -12,25 -26,54 -41,82 -13,25 -29,51 -46,77l-69 103 403 325 843 -1262c47,-70 88,-130 137,-193 52,-66 107,-128 176,-194 177,-169 416,-339 705,-443 235,-84 500,-124 790,-85 227,31 321,88 474,183 28,17 58,36 67,41 844,503 1639,1114 2343,1795 698,676 1306,1422 1783,2202l2 4c248,393 437,814 576,1246 151,470 241,950 279,1419 3,33 0,65 -7,95 -53,304 -119,592 -198,866 -60,208 -126,404 -196,588l34 28c11,9 22,19 31,29 805,799 1287,1794 1560,2780 359,1295 357,2579 255,3370 221,130 374,310 470,511 104,220 136,464 109,693l780 387 112 -227c24,-48 58,-87 98,-116 219,-178 504,-311 799,-354 205,-30 417,-19 618,48 206,68 399,193 561,388 114,137 212,308 285,518zm1788 1552l-1601 3211c-21,55 0,142 48,238 54,107 141,213 250,299 107,84 232,147 363,169 158,27 333,-6 508,-133l471 -806 1124 -2558c-24,-66 -57,-136 -100,-206 -68,-111 -158,-213 -268,-281 -103,-63 -227,-98 -375,-82 -121,13 -260,59 -420,149zm-3519 13459l485 -1256 -5841 -2774 -558 1163 5913 2868zm-4255 -11905c91,-506 132,-1024 174,-1552 42,-527 85,-1064 180,-1627 10,-62 38,-117 78,-161 189,-229 480,-352 801,-353 288,-1 603,96 885,304 -60,-81 -80,-188 -45,-290 53,-153 53,-338 -21,-495 -57,-121 -164,-227 -333,-290 -154,-44 -253,-197 -225,-358 123,-693 165,-2005 -204,-3334 -247,-890 -677,-1784 -1391,-2496l-6399 -5154c-15,-7 -29,-15 -43,-24 -30,-20 -55,-44 -76,-71l-953 -767c-15,-7 -29,-15 -42,-24 -30,-20 -55,-44 -76,-71l-569 -459 -8559 12804 640 350c33,9 66,23 96,43 14,9 27,20 39,31l1071 586c34,9 66,23 97,43 14,9 27,20 39,31l7207 3941c929,387 1921,443 2839,330 1356,-166 2540,-695 3138,-1072 130,-97 315,-80 425,43 139,156 349,240 560,264 232,27 448,-15 556,-111 33,-29 70,-50 109,-63zm2188 -3320l6 8 1 0c315,452 464,967 531,1474 2,18 5,36 7,54l500 -1013 -1001 -496 0 0c-15,-8 -30,-16 -44,-26zm7329 2544c-22,22 -46,41 -74,56l-871 1981c3,38 -1,77 -12,115 -56,187 -1,403 120,579 68,99 156,183 256,240 92,52 194,80 298,72 169,-12 357,-115 545,-353 320,-488 499,-1105 668,-1686 51,-176 101,-349 150,-502 -47,-239 -138,-416 -254,-532 -68,-68 -144,-116 -224,-142 -76,-25 -158,-32 -241,-19 -125,19 -251,83 -361,192zm847 5265l-3075 4595 -443 820 -1 0c-112,211 33,336 258,531 66,57 136,118 197,174l0 0 2851 2367c10,7 20,15 29,23 1,1 13,-16 32,-38 71,-78 149,-199 227,-320 25,-39 50,-78 94,-143l7297 -10917c54,-81 75,-111 96,-141 82,-118 164,-236 209,-333 12,-26 24,-43 22,-43l0 -1c-5,-2 -9,-4 -14,-7l-3293 -1738 -3 -1c-47,-22 -144,-71 -235,-116 -266,-133 -437,-219 -589,-34l-1 0 -586 720 -3072 4602zm-18963 -22335c5,-8 11,-17 17,-25l221 -331c2,-3 7,-13 14,-25 9,-16 17,-33 24,-48 12,-25 -30,20 -49,-10 -58,-88 -157,-185 -285,-270 -124,-83 -247,-137 -349,-158 -43,-9 -33,-46 -47,-34 -7,6 -34,57 -55,90 -3113,4659 -6227,9316 -9341,13974 -6,8 -11,16 -18,26 -22,32 -59,77 -62,86 -6,18 24,-5 49,31 59,87 156,180 280,263 127,85 254,140 357,160 36,7 10,63 29,43 13,-15 26,-29 35,-40 8,-10 14,-18 18,-24l9162 -13706zm1589 819l578 466 400 -598c32,-48 -2,2 31,-47 105,-159 187,-282 368,-426 93,-73 201,-142 321,-193 108,-46 227,-79 357,-92 369,-36 541,75 795,241l79 51c511,326 990,710 1414,1133 422,421 791,881 1084,1361l2 4c130,207 236,424 320,647 91,241 156,486 198,730 36,204 47,343 36,487 -10,138 -41,264 -90,449 -31,119 -64,228 -98,330 -11,33 -23,66 -34,98l1003 808c39,-112 76,-227 110,-344 69,-238 128,-495 177,-775 -36,-414 -116,-833 -246,-1239 -123,-382 -290,-755 -509,-1102 -2,-4 -5,-7 -7,-11 -449,-735 -1024,-1439 -1685,-2079 -668,-647 -1424,-1227 -2226,-1706 -42,-25 -57,-34 -72,-43 -85,-52 -136,-84 -230,-96 -181,-25 -347,0 -494,53 -194,70 -358,188 -483,307 -47,45 -83,85 -114,125 -34,44 -69,95 -110,156l-874 1308zm1071 862l4166 3356c17,-55 32,-109 47,-164 39,-147 63,-246 70,-338 7,-86 -2,-182 -28,-331 -37,-209 -91,-417 -166,-616 -70,-185 -156,-364 -263,-533 -3,-4 -5,-8 -7,-11 -267,-437 -604,-857 -990,-1242 -394,-393 -837,-748 -1308,-1049 -54,-34 -69,-44 -84,-54 -144,-94 -241,-157 -390,-142 -61,6 -118,22 -171,45 -68,29 -127,66 -178,107 -99,79 -157,166 -233,280 -12,18 21,-31 -34,50l-431 644zm-2600 16991l-1130 -618c-25,23 -51,46 -78,70 -75,66 -157,133 -246,201 -6,6 -13,11 -20,17 -150,114 -254,189 -382,254 -127,64 -261,107 -464,153 -243,54 -495,88 -749,96 -243,8 -487,-7 -728,-49l0 -1c-556,-88 -1121,-252 -1667,-480 -552,-230 -1090,-525 -1587,-874 -25,-17 -28,-19 -77,-52 -251,-172 -421,-288 -529,-643 -37,-121 -51,-244 -50,-364 1,-136 23,-261 54,-372 63,-221 146,-344 253,-503 57,-85 -39,60 33,-47l400 -598 -651 -356 -875 1309c-39,59 -73,109 -102,161 -27,48 -50,96 -72,152 -62,160 -108,357 -98,565 7,156 48,318 140,476 47,81 96,117 176,175 27,20 56,41 69,50 751,561 1576,1037 2427,1406 844,366 1714,628 2565,762l5 1 0 -1c407,70 819,83 1223,50 427,-35 844,-121 1237,-244 236,-150 451,-304 649,-462 97,-77 188,-154 276,-233zm-1720 -940l-4694 -2567 -464 695 0 0c7,-11 14,-21 0,0 -75,112 -134,198 -169,323 -19,65 -31,135 -32,204 -1,56 7,115 25,176 44,144 139,209 279,305l82 57c457,320 955,593 1469,807 506,211 1023,362 1526,441l5 1 0 -1c203,35 405,48 602,41 215,-7 428,-36 633,-82 146,-33 238,-61 316,-101 78,-40 161,-101 285,-195 6,-5 13,-9 19,-13 39,-30 78,-61 116,-92zm-5158 -1872c-17,25 -8,12 0,0l0 0z"></path></g></g>
</svg>
</g></svg></svg>