<svg version="1.1" preserveAspectRatio="none" xmlns="http://www.w3.org/2000/svg" width="500" height="500" viewBox="0 0 500 500"><rect width="100%" height="100%" fill="#FFFFFF" fill-opacity="1"/><svg viewBox="94.5114 295.2 477.3471 114" width="333" height="79.52703598702077" x="83.5px" y="210.2365px" xmlns="http://www.w3.org/2000/svg" xmlns:xlink="http://www.w3.org/1999/xlink" preserveAspectRatio="none"><defs></defs><style>.companyName {fill:#4D4D4D;fill-opacity:1;}.icon1 {fill:#FF834F;fill-opacity:1;}.icon2 {fill:#FF4949;fill-opacity:1;}.icon3 {fill:#FFAE78;fill-opacity:1;}.icon3-str {stroke:#FFAE78;stroke-opacity:1;}.shapeStroke-str {stroke:#313131;stroke-opacity:1;}</style><g opacity="1" transform="rotate(0 94.5114 307.2)">
<svg width="93.1034" height="90" x="94.5114" y="307.2" version="1.1" preserveAspectRatio="none" viewBox="0 1 60 58">
  <g transform="matrix(1 0 0 1 0 0)" class="icon1"><g><g><path d="M1,15h8c0.553,0,1-0.447,1-1s-0.447-1-1-1H1c-0.553,0-1,0.447-1,1S0.447,15,1,15z M58,8c-0.994,0-3.176,1.021-4.33,2.625    c-0.658,0.914-0.929,1.911-0.798,2.92c-0.526,0.217-1.608,0.456-3.82,0.458c-0.637-0.112-3.188-1.871-4.645-3.084    c0.542-0.662,1.182-1.54,1.7-2.403c0.775-1.295,1.683-3.14,0.6-4.223C45.639,3.225,43.414,1,41,1c-3.563,0-3.952,3.211-3.995,6H34    c-0.977,0-3.668-1.089-5.448-1.811C26.416,4.326,25.557,4,25,4c-1.134,0-6.264,1.034-9.316,2.052C13.943,6.631,11,8.115,11,10    c0,1.57,2.43,4,4,4c1.372,0,2.759-1.163,2.973-3.395C18.77,10.35,21.035,10.01,25.766,10l2.604,1.305    c-0.697,0.791-1.646,1.897-2.629,3.045c-1.464,1.707-2.976,3.471-3.448,3.943l-4,4c-1.152,1.152-1.37,2.866-1.581,4.521    c-0.133,1.051-0.259,2.043-0.606,2.737c-1.006,2.013-4.974,7.901-5.813,8.74c-0.496,0.495-1.005,1.431-1.861,3.041    c-0.924,1.733-2.072,3.894-3.139,4.959c-0.947,0.946-1.529,1.047-2.148,1.153c-0.539,0.092-1.213,0.207-1.852,0.847    C1.105,48.48,1,48.734,1,49c0,2.225,1.092,5.419,2.105,7.447C4.284,58.805,5.62,59,7,59c0.553,0,1-0.447,1-1    c0-2.15,1.018-8.453,1.707-9.293c0.511-0.512,4.4-4.645,8.521-9.021c3.354-3.563,6.807-7.231,8.047-8.531    c0.67,0.236,1.811,0.652,2.91,1.117c-1.771,1.482-4.929,3.914-6.459,4.744c-1.293,0.137-2.381,1.225-3.435,2.277    c-1.733,1.734,0.786,7.102,0.813,7.154c0.686,1.371,1.655,2.945,3.09,2.945c0.378,0,0.945-0.119,1.512-0.687    c1.035-1.035,1.275-3.544,1.292-7.257c1.967-1.564,8.522-4.374,11.214-5.458C38.406,35.902,40,35.073,40,32.999    c0-2.247-4.714-7.108-7.391-9.131c0.976-0.886,2.533-2.271,4.055-3.622c1.757-1.563,3.439-3.059,4.383-3.92    C42.973,17.798,47.689,21,49,21c1.34,0,5.602-2.188,6.707-3.293c0.2-0.2,0.488-0.441,0.814-0.721C57.989,15.74,60,14.032,60,12    C60,9.943,60,8,58,8z M55.227,15.463c-0.375,0.319-0.703,0.6-0.934,0.83c-0.852,0.852-4.525,2.664-5.217,2.713    c-0.95-0.189-6.412-3.756-7.369-4.713c-0.391-0.391-1.023-0.391-1.414,0c-0.479,0.479-2.756,2.503-4.957,4.46    c-2.326,2.065-4.521,4.021-5.043,4.54c-0.229,0.229-0.332,0.55-0.279,0.867c0.051,0.316,0.252,0.591,0.539,0.734    C32.71,25.975,38,31.73,38,33c0,0.807-0.55,0.988-1,1c-0.127,0-0.253,0.023-0.371,0.07c-1.043,0.418-10.251,4.138-12.336,6.223    C24.105,40.48,24,40.734,24,41c0,4.617-0.385,5.971-0.707,6.293c-0.052,0.053-0.089,0.079-0.1,0.092    c-0.104-0.05-0.555-0.342-1.299-1.832c-0.658-1.316-1.496-4.279-1.188-4.846C21.467,39.945,22.413,39,22.999,39    c0.155,0,0.31-0.036,0.446-0.105c2.085-1.041,7.172-5.098,8.261-6.188c0.228-0.229,0.332-0.55,0.28-0.867    c-0.053-0.316-0.254-0.591-0.541-0.734c-2.039-1.02-5.006-2.013-5.131-2.054c-0.359-0.122-0.756-0.026-1.022,0.241    c-0.511,0.512-4.401,4.645-8.521,9.021c-3.929,4.174-7.989,8.488-8.479,8.979c-1.229,1.229-2.01,7-2.229,9.607    c-0.396-0.144-0.74-0.492-1.168-1.349c-0.856-1.713-1.724-4.231-1.873-6.038c0.111-0.035,0.256-0.063,0.461-0.098    c0.771-0.132,1.828-0.313,3.225-1.71c1.277-1.276,2.452-3.485,3.488-5.435c0.563-1.058,1.203-2.258,1.512-2.565    c1.159-1.159,5.209-7.304,6.188-9.261c0.5-1,0.653-2.209,0.803-3.379c0.168-1.323,0.342-2.691,1.011-3.36l4-4    c0.526-0.526,1.997-2.241,3.552-4.058c1.463-1.705,2.977-3.471,3.448-3.942c0.228-0.228,0.332-0.55,0.28-0.867    c-0.053-0.317-0.254-0.591-0.541-0.733l-4-2C26.309,8.036,26.154,8,26,8c-8.414,0-9.354,0.939-9.707,1.293    C16.105,9.48,16,9.734,16,10c0,1.299-0.516,2-0.98,2.001c-0.549-0.074-1.945-1.471-2.021-1.976    c0.081-0.366,1.293-1.401,3.318-2.077c3.065-1.021,7.889-1.948,8.65-1.949c0.346,0.038,1.725,0.597,2.834,1.046    C30.63,8.189,32.73,9,33.999,9h4c0.554,0,1-0.447,1-1c0-3.752,0.289-5,2-5c1.534,0,3.296,1.712,4.204,2.619    c-0.004,0.801-1.749,3.512-2.911,4.674c-0.392,0.391-0.392,1.023,0,1.414C42.99,12.406,47.425,16,48.999,16    c2.056,0,4.562-0.146,5.707-1.293c0.269-0.268,0.36-0.664,0.241-1.023c-0.208-0.623-0.112-1.218,0.291-1.813    c0.714-1.057,2.13-1.732,2.676-1.852C58,10.389,58,11.238,58,12C58,13.105,56.264,14.582,55.227,15.463z M1,25h11    c0.553,0,1-0.447,1-1s-0.447-1-1-1H1c-0.553,0-1,0.447-1,1S0.447,25,1,25z M4,35c0.553,0,1-0.447,1-1s-0.447-1-1-1H1    c-0.553,0-1,0.447-1,1s0.447,1,1,1H4z"></path></g></g></g>
</svg>
</g><g opacity="1" transform="rotate(0 225.6148 322.2)">
<svg width="346.2437" height="60" x="225.6148" y="322.2" version="1.1" preserveAspectRatio="none" viewBox="3.32 -29.68 174.04 30.16">
  <g transform="matrix(1 0 0 1 0 0)" class="companyName"><path id="id-D6z1nYkh7" d="M34.88 0L28.80 0L28.76-16.80L20.52-2.96L17.60-2.96L9.40-16.44L9.40 0L3.32 0L3.32-28L8.68-28L19.16-10.60L29.48-28L34.80-28L34.88 0Z M49.76-21.84Q54.76-21.84 57.44-19.46Q60.12-17.08 60.12-12.28L60.12-12.28L60.12 0L54.28 0L54.28-2.68Q52.52 0.32 47.72 0.32L47.72 0.32Q45.24 0.32 43.42-0.52Q41.60-1.36 40.64-2.84Q39.68-4.32 39.68-6.20L39.68-6.20Q39.68-9.20 41.94-10.92Q44.20-12.64 48.92-12.64L48.92-12.64L53.88-12.64Q53.88-14.68 52.64-15.78Q51.40-16.88 48.92-16.88L48.92-16.88Q47.20-16.88 45.54-16.34Q43.88-15.80 42.72-14.88L42.72-14.88L40.48-19.24Q42.24-20.48 44.70-21.16Q47.16-21.84 49.76-21.84L49.76-21.84ZM49.28-3.88Q50.88-3.88 52.12-4.62Q53.36-5.36 53.88-6.80L53.88-6.80L53.88-9L49.60-9Q45.76-9 45.76-6.48L45.76-6.48Q45.76-5.28 46.70-4.58Q47.64-3.88 49.28-3.88L49.28-3.88Z M65.76 0L65.76-29.68L72-29.68L72 0L65.76 0Z M89.56-16.60Q93.24-16 95.20-13.86Q97.16-11.72 97.16-8.56L97.16-8.56Q97.16-6.12 95.88-4.06Q94.60-2 91.98-0.76Q89.36 0.48 85.56 0.48L85.56 0.48Q82.60 0.48 79.74-0.30Q76.88-1.08 74.88-2.52L74.88-2.52L77.40-7.48Q79-6.28 81.10-5.62Q83.20-4.96 85.40-4.96L85.40-4.96Q87.84-4.96 89.24-5.90Q90.64-6.84 90.64-8.56L90.64-8.56Q90.64-12 85.40-12L85.40-12L82.44-12L82.44-16.28L88.20-22.80L76.28-22.80L76.28-28L95.88-28L95.88-23.80L89.56-16.60Z M110.16-21.84Q115.16-21.84 117.84-19.46Q120.52-17.08 120.52-12.28L120.52-12.28L120.52 0L114.68 0L114.68-2.68Q112.92 0.32 108.12 0.32L108.12 0.32Q105.64 0.32 103.82-0.52Q102-1.36 101.04-2.84Q100.08-4.32 100.08-6.20L100.08-6.20Q100.08-9.20 102.34-10.92Q104.60-12.64 109.32-12.64L109.32-12.64L114.28-12.64Q114.28-14.68 113.04-15.78Q111.80-16.88 109.32-16.88L109.32-16.88Q107.60-16.88 105.94-16.34Q104.28-15.80 103.12-14.88L103.12-14.88L100.88-19.24Q102.64-20.48 105.10-21.16Q107.56-21.84 110.16-21.84L110.16-21.84ZM109.68-3.88Q111.28-3.88 112.52-4.62Q113.76-5.36 114.28-6.80L114.28-6.80L114.28-9L110-9Q106.16-9 106.16-6.48L106.16-6.48Q106.16-5.28 107.10-4.58Q108.04-3.88 109.68-3.88L109.68-3.88Z M138.88-21.84Q141.88-21.84 144.34-20.46Q146.80-19.08 148.20-16.58Q149.60-14.08 149.60-10.76L149.60-10.76Q149.60-7.44 148.20-4.94Q146.80-2.44 144.34-1.06Q141.88 0.32 138.88 0.32L138.88 0.32Q134.44 0.32 132.12-2.48L132.12-2.48L132.12 0L126.16 0L126.16-29.68L132.40-29.68L132.40-19.24Q134.76-21.84 138.88-21.84L138.88-21.84ZM137.80-4.80Q140.20-4.80 141.74-6.42Q143.28-8.04 143.28-10.76L143.28-10.76Q143.28-13.48 141.74-15.10Q140.20-16.72 137.80-16.72L137.80-16.72Q135.40-16.72 133.86-15.10Q132.32-13.48 132.32-10.76L132.32-10.76Q132.32-8.04 133.86-6.42Q135.40-4.80 137.80-4.80L137.80-4.80Z M169.80 0L163-8.44L160-5.48L160 0L153.76 0L153.76-29.68L160-29.68L160-12.88L169.12-21.52L176.56-21.52L167.60-12.40L177.36 0L169.80 0Z"/></g>
</svg>
</g><g opacity="1" transform="rotate(0 205.6148 295.2)">
<svg width="4" height="114" x="205.6148" y="295.2" version="1.1" preserveAspectRatio="none" viewBox="0 0 4 114">
  <rect x="0" y="0" width="4" height="114" class="companyName shapeStroke-str" style="stroke-width:0;" rx="0px" ry="0px" />
</svg>
</g></svg></svg>